<svg width="64" height="64" viewBox="0 0 64 64" fill="none" xmlns="http://www.w3.org/2000/svg">
<path fill-rule="evenodd" clip-rule="evenodd" d="M23.6728 25.1306C23.6728 20.6402 27.401 17 32 17C36.599 17 40.3272 20.6402 40.3272 25.1306C40.3272 29.6211 36.599 33.2613 32 33.2613C27.401 33.2613 23.6728 29.6211 23.6728 25.1306ZM17.1403 43.6574C18.9338 37.2301 25.3068 34.973 32 34.973C38.6932 34.973 45.0662 37.2301 46.8597 43.6574C47.2468 45.0447 46.7987 46.3404 45.9346 47.2474C45.0884 48.1355 43.8405 48.6667 42.5186 48.6667H21.4814C20.1595 48.6667 18.9116 48.1355 18.0654 47.2474C17.2013 46.3404 16.7532 45.0447 17.1403 43.6574Z" fill="white"/>
<path d="M32 63C14.8792 63 1 49.1208 1 32H-1C-1 50.2254 13.7746 65 32 65V63ZM63 32C63 49.1208 49.1208 63 32 63V65C50.2254 65 65 50.2254 65 32H63ZM32 1C49.1208 1 63 14.8792 63 32H65C65 13.7746 50.2254 -1 32 -1V1ZM32 -1C13.7746 -1 -1 13.7746 -1 32H1C1 14.8792 14.8792 1 32 1V-1Z" fill="#F3F3F3"/>
</svg>
