<svg width="25" height="24" viewBox="0 0 25 24" fill="none" xmlns="http://www.w3.org/2000/svg">
<path d="M20.7012 7H4.70117C3.5966 7 2.70117 7.89543 2.70117 9V19C2.70117 20.1046 3.5966 21 4.70117 21H20.7012C21.8057 21 22.7012 20.1046 22.7012 19V9C22.7012 7.89543 21.8057 7 20.7012 7Z" stroke="#4BAEEA" stroke-width="2" stroke-linecap="round" stroke-linejoin="round"/>
<path d="M16.7012 21V5C16.7012 4.46957 16.4905 3.96086 16.1154 3.58579C15.7403 3.21071 15.2316 3 14.7012 3H10.7012C10.1707 3 9.66203 3.21071 9.28696 3.58579C8.91189 3.96086 8.70117 4.46957 8.70117 5V21" stroke="#4BAEEA" stroke-width="2" stroke-linecap="round" stroke-linejoin="round"/>
</svg>
