<svg width="16" height="16" viewBox="0 0 16 16" fill="none" xmlns="http://www.w3.org/2000/svg">
<path fill-rule="evenodd" clip-rule="evenodd" d="M3.33398 3.33333C2.96579 3.33333 2.66732 3.63181 2.66732 4V13.3333C2.66732 13.7015 2.96579 14 3.33398 14H12.6673C13.0355 14 13.334 13.7015 13.334 13.3333V4C13.334 3.63181 13.0355 3.33333 12.6673 3.33333H3.33398ZM1.33398 4C1.33398 2.89543 2.22941 2 3.33398 2H12.6673C13.7719 2 14.6673 2.89543 14.6673 4V13.3333C14.6673 14.4379 13.7719 15.3333 12.6673 15.3333H3.33398C2.22941 15.3333 1.33398 14.4379 1.33398 13.3333V4Z" fill="#4BAEEA"/>
<path fill-rule="evenodd" clip-rule="evenodd" d="M10.6667 0.667969C11.0349 0.667969 11.3333 0.966446 11.3333 1.33464V4.0013C11.3333 4.36949 11.0349 4.66797 10.6667 4.66797C10.2985 4.66797 10 4.36949 10 4.0013V1.33464C10 0.966446 10.2985 0.667969 10.6667 0.667969Z" fill="#4BAEEA"/>
<path fill-rule="evenodd" clip-rule="evenodd" d="M5.33268 0.667969C5.70087 0.667969 5.99935 0.966446 5.99935 1.33464V4.0013C5.99935 4.36949 5.70087 4.66797 5.33268 4.66797C4.96449 4.66797 4.66602 4.36949 4.66602 4.0013V1.33464C4.66602 0.966446 4.96449 0.667969 5.33268 0.667969Z" fill="#4BAEEA"/>
<path fill-rule="evenodd" clip-rule="evenodd" d="M1.33398 6.66667C1.33398 6.29848 1.63246 6 2.00065 6H14.0007C14.3688 6 14.6673 6.29848 14.6673 6.66667C14.6673 7.03486 14.3688 7.33333 14.0007 7.33333H2.00065C1.63246 7.33333 1.33398 7.03486 1.33398 6.66667Z" fill="#4BAEEA"/>
</svg>
