<svg width="16" height="16" viewBox="0 0 16 16" fill="none" xmlns="http://www.w3.org/2000/svg">
<path fill-rule="evenodd" clip-rule="evenodd" d="M7.99935 2.00033C4.68564 2.00033 1.99935 4.68662 1.99935 8.00033C1.99935 11.314 4.68564 14.0003 7.99935 14.0003C11.3131 14.0003 13.9993 11.314 13.9993 8.00033C13.9993 4.68662 11.3131 2.00033 7.99935 2.00033ZM0.666016 8.00033C0.666016 3.95024 3.94926 0.666992 7.99935 0.666992C12.0494 0.666992 15.3327 3.95024 15.3327 8.00033C15.3327 12.0504 12.0494 15.3337 7.99935 15.3337C3.94926 15.3337 0.666016 12.0504 0.666016 8.00033Z" fill="#D9D9D9"/>
<path fill-rule="evenodd" clip-rule="evenodd" d="M8.00065 3.33301C8.36884 3.33301 8.66732 3.63148 8.66732 3.99967V7.58765L10.9655 8.73672C11.2948 8.90138 11.4283 9.30183 11.2636 9.63115C11.0989 9.96047 10.6985 10.094 10.3692 9.92929L7.70251 8.59596C7.47665 8.48303 7.33398 8.25219 7.33398 7.99967V3.99967C7.33398 3.63148 7.63246 3.33301 8.00065 3.33301Z" fill="#D9D9D9"/>
</svg>
