<svg width="202" height="150" viewBox="0 0 202 150" fill="none" xmlns="http://www.w3.org/2000/svg">
<path d="M201.641 131.818H0.357422V131.919H201.641V131.818Z" fill="#EBEBEB"/>
<path d="M181.473 138.299H175.475V138.4H181.473V138.299Z" fill="#EBEBEB"/>
<path d="M133.697 139.391H130.197V139.491H133.697V139.391Z" fill="#EBEBEB"/>
<path d="M173.774 134.561H160.01V134.661H173.774V134.561Z" fill="#EBEBEB"/>
<path d="M44.4914 136.637H27.1035V136.737H44.4914V136.637Z" fill="#EBEBEB"/>
<path d="M54.3451 136.637H48.0742V136.737H54.3451V136.637Z" fill="#EBEBEB"/>
<path d="M102.914 135.287H65.2031V135.388H102.914V135.287Z" fill="#EBEBEB"/>
<path d="M95.7703 113.865H18.0343C17.425 113.864 16.8409 113.622 16.4101 113.191C15.9793 112.76 15.737 112.176 15.7363 111.567V2.29715C15.7372 1.68803 15.9796 1.10412 16.4104 0.673485C16.8412 0.242849 17.4252 0.000644647 18.0343 0H95.7703C96.3793 0.000859534 96.9631 0.243157 97.3937 0.67377C97.8243 1.10438 98.0666 1.68817 98.0675 2.29715V111.565C98.0672 112.175 97.8252 112.759 97.3945 113.19C96.9639 113.621 96.3797 113.864 95.7703 113.865ZM18.0351 0.100724C17.454 0.102439 16.8971 0.334056 16.4862 0.744986C16.0753 1.15592 15.8436 1.71276 15.8419 2.2939V111.565C15.8436 112.147 16.0753 112.703 16.4862 113.114C16.8971 113.525 17.454 113.757 18.0351 113.759H95.7711C96.3522 113.757 96.9091 113.525 97.32 113.114C97.731 112.703 97.9626 112.147 97.9643 111.565V2.29715C97.9626 1.71601 97.731 1.15916 97.32 0.748234C96.9091 0.337304 96.3522 0.105689 95.7711 0.103975L18.0351 0.100724Z" fill="#EBEBEB"/>
<path d="M182.846 113.865H105.11C104.501 113.864 103.917 113.622 103.486 113.191C103.055 112.76 102.813 112.176 102.812 111.567V2.29715C102.813 1.68811 103.055 1.10419 103.486 0.673535C103.917 0.242875 104.501 0.000645061 105.11 0H182.846C183.455 0.000644647 184.039 0.242849 184.47 0.673485C184.9 1.10412 185.143 1.68803 185.144 2.29715V111.565C185.143 112.175 184.901 112.759 184.47 113.191C184.04 113.622 183.455 113.864 182.846 113.865ZM105.11 0.100724C104.529 0.102439 103.972 0.334056 103.561 0.744986C103.15 1.15592 102.918 1.71276 102.916 2.2939V111.565C102.918 112.147 103.15 112.703 103.561 113.114C103.972 113.525 104.529 113.757 105.11 113.759H182.846C183.428 113.758 183.985 113.527 184.397 113.116C184.809 112.705 185.041 112.147 185.043 111.565V2.29715C185.041 1.71531 184.809 1.15785 184.397 0.746805C183.985 0.33576 183.428 0.104617 182.846 0.103975L105.11 0.100724Z" fill="#EBEBEB"/>
<path d="M86.6967 131.814H94.1934V80.3381H86.6967V131.814Z" fill="#E6E6E6"/>
<path d="M89.3364 131.815H86.6973V122.035H92.103L89.3364 131.815Z" fill="#F0F0F0"/>
<path d="M165.974 131.814H173.471V80.3381H165.974V131.814Z" fill="#E6E6E6"/>
<path d="M86.6981 129.146H168.275V80.3401H86.6981V129.146Z" fill="#F0F0F0"/>
<path d="M165.641 131.815H168.28V122.035H162.871L165.641 131.815Z" fill="#F0F0F0"/>
<path d="M141.381 84.3799V124.754H165.564V84.3799H141.381Z" fill="#E6E6E6"/>
<path d="M151.079 85.7992H155.864C157.889 85.8198 159.848 85.0834 161.358 83.7344H145.586C147.096 85.0832 149.055 85.8196 151.079 85.7992Z" fill="#F0F0F0"/>
<path d="M115.396 84.3799V124.754H139.579V84.3799H115.396Z" fill="#E6E6E6"/>
<path d="M124.852 85.7992H129.636C131.661 85.8196 133.62 85.0832 135.13 83.7344H119.357C120.867 85.0834 122.827 85.8198 124.852 85.7992Z" fill="#F0F0F0"/>
<path d="M89.4121 84.3799V124.754H113.595V84.3799H89.4121Z" fill="#E6E6E6"/>
<path d="M98.8674 85.7992H103.652C105.677 85.8198 107.636 85.0834 109.146 83.7344H93.373C94.8831 85.0834 96.8426 85.8198 98.8674 85.7992Z" fill="#F0F0F0"/>
<path d="M28.5279 131.816H79.6777L79.6777 16.8353H28.5279L28.5279 131.816Z" fill="#F0F0F0"/>
<path d="M28.5274 131.816H78.5977L78.5977 16.8353H28.5274L28.5274 131.816Z" fill="#F5F5F5"/>
<path d="M75.5469 129.208V19.4453L31.5785 19.4453L31.5785 129.208H75.5469Z" fill="#F0F0F0"/>
<path d="M71.2268 39.858C71.2268 38.2839 70.9168 36.7251 70.3144 35.2708C69.712 33.8165 68.829 32.4951 67.7159 31.382C66.6028 30.2689 65.2814 29.3859 63.8271 28.7835C62.3728 28.1811 60.814 27.8711 59.2399 27.8711H47.8873C44.7082 27.8711 41.6593 29.134 39.4113 31.382C37.1633 33.63 35.9004 36.6789 35.9004 39.858H71.2268Z" fill="#FAFAFA"/>
<path d="M71.2266 122.384V96.1621H35.9001V122.384H71.2266Z" fill="#F5F5F5"/>
<path d="M71.2267 47.252H55.6445V92.7799H71.2267V47.252Z" fill="#F5F5F5"/>
<path d="M51.4825 47.252H35.9004V92.7799H51.4825V47.252Z" fill="#F5F5F5"/>
<path d="M41.552 69.8104H35.1699C34.9075 69.8098 34.656 69.7053 34.4704 69.5197C34.2849 69.3341 34.1803 69.0827 34.1797 68.8203C34.1805 68.5579 34.2851 68.3065 34.4707 68.121C34.6562 67.9355 34.9075 67.8309 35.1699 67.8301H41.552C41.8144 67.8309 42.0657 67.9355 42.2512 68.121C42.4367 68.3065 42.5413 68.5579 42.5422 68.8203C42.5416 69.0827 42.437 69.3341 42.2515 69.5197C42.0659 69.7053 41.8144 69.8098 41.552 69.8104Z" fill="#E0E0E0"/>
<path d="M32.3711 129.208L32.3711 19.4453H31.5799L31.5799 129.208H32.3711Z" fill="#F0F0F0"/>
<path d="M112.034 67.7207H166.277V16.8357L112.034 16.8357V67.7207Z" fill="#E6E6E6"/>
<path d="M110.668 67.7207H164.912V16.8357L110.668 16.8357V67.7207Z" fill="#F5F5F5"/>
<path d="M107.499 70.666L166.277 70.666V67.7207H107.499V70.666Z" fill="#E6E6E6"/>
<path d="M105.96 70.666H161.711V67.7207H105.96V70.666Z" fill="#F5F5F5"/>
<path d="M162.455 65.0737V19.4824L113.12 19.4824V65.0737H162.455Z" fill="white"/>
<path d="M139.156 65.0737V19.4824H136.421V65.0737H139.156Z" fill="#F5F5F5"/>
<path d="M114.154 65.0737V19.4824H113.12V65.0737H114.154Z" fill="#E6E6E6"/>
<path d="M140.189 65.0737V19.4824H139.155V65.0737H140.189Z" fill="#E6E6E6"/>
<path d="M119.325 69.0699C118.328 58.7336 117.633 41.9606 118.172 36.351C118.182 36.2546 118.212 36.1613 118.26 36.0772C118.308 35.9932 118.373 35.9204 118.452 35.8636C118.556 35.7873 118.68 35.7418 118.809 35.7323C118.938 35.7229 119.066 35.7498 119.181 35.8101C119.295 35.8704 119.39 35.9616 119.455 36.0733C119.52 36.185 119.552 36.3128 119.548 36.4419C119.453 39.2216 119.344 46.1691 119.936 58.1544C120.231 64.1207 120.656 68.2065 120.364 69.0683L119.325 69.0699Z" fill="#E6E6E6"/>
<path d="M115.605 45.2468C112.762 42.0927 106.963 39.85 101.052 39.8614C98.7308 39.8662 108.113 43.5305 112.017 47.5781C115.138 50.9393 117.706 54.7734 119.628 58.938C118.874 52.7605 118.446 48.3993 115.605 45.2468Z" fill="#E6E6E6"/>
<path d="M121.235 46.2067C123.591 42.9218 129.039 40.3956 134.931 40.1097C137.243 39.9976 128.444 44.1199 125.16 48.3455C122.54 51.8772 120.548 55.8341 119.273 60.0424C119.101 53.8585 118.877 49.4924 121.235 46.2067Z" fill="#E6E6E6"/>
<path d="M115.48 33.7262C113.075 31.0554 108.162 29.1563 103.156 29.1661C101.191 29.1661 109.135 32.2739 112.439 35.6977C115.081 38.5438 117.256 41.7904 118.883 45.3168C118.248 40.0905 117.883 36.3971 115.48 33.7262Z" fill="#E6E6E6"/>
<path d="M120.245 37.6765C122.243 34.8944 126.854 32.7557 131.842 32.5136C133.801 32.4186 126.35 35.909 123.568 39.4871C121.349 42.4792 119.663 45.8317 118.583 49.397C118.439 44.1561 118.248 40.457 120.245 37.6765Z" fill="#E6E6E6"/>
<path d="M119.724 80.3416C118.225 80.3416 116.783 79.7683 115.693 78.7392C114.603 77.7101 113.948 76.3032 113.862 74.8067L113.344 65.8203H126.105L125.587 74.8067C125.501 76.3032 124.845 77.7101 123.755 78.7392C122.666 79.7683 121.223 80.3416 119.724 80.3416Z" fill="#E6E6E6"/>
<path d="M126.931 67.8615H112.52L112.107 64.125H127.347L126.931 67.8615Z" fill="#E6E6E6"/>
<path d="M100.999 150C144.107 150 179.053 147.959 179.053 145.441C179.053 142.924 144.107 140.883 100.999 140.883C57.8911 140.883 22.9453 142.924 22.9453 145.441C22.9453 147.959 57.8911 150 100.999 150Z" fill="#F5F5F5"/>
<path d="M102.573 141.085L99.2122 141.464L97.9727 133.841L101.334 133.463L102.573 141.085Z" fill="#FFC3BD"/>
<path d="M117.622 141.82H114.266L113.43 134.047H116.786L117.622 141.82Z" fill="#FFC3BD"/>
<path d="M113.989 141.428H118.08C118.147 141.428 118.211 141.451 118.263 141.492C118.315 141.534 118.352 141.592 118.366 141.657L119.029 144.64C119.045 144.713 119.044 144.788 119.026 144.861C119.008 144.933 118.975 145 118.927 145.057C118.88 145.115 118.821 145.161 118.753 145.192C118.686 145.223 118.612 145.239 118.538 145.237C117.221 145.215 116.263 145.137 114.603 145.137C113.583 145.137 110.506 145.243 109.097 145.243C107.716 145.243 107.504 143.85 108.081 143.724C110.667 143.155 112.616 142.378 113.442 141.634C113.592 141.5 113.787 141.426 113.989 141.428Z" fill="#263238"/>
<path d="M99.1564 140.887L102.799 140.475C102.865 140.467 102.932 140.482 102.988 140.517C103.045 140.553 103.087 140.607 103.109 140.67L104.104 143.559C104.129 143.629 104.138 143.704 104.13 143.777C104.121 143.851 104.097 143.922 104.057 143.985C104.017 144.047 103.963 144.1 103.9 144.139C103.837 144.178 103.765 144.202 103.691 144.209C102.375 144.335 100.468 144.474 98.8176 144.661C96.8868 144.88 96.5651 145.397 94.2875 145.344C92.9066 145.312 92.5606 143.911 93.1397 143.801C95.778 143.288 96.2882 142.89 98.3847 141.244C98.6037 141.056 98.871 140.932 99.1564 140.887Z" fill="#263238"/>
<path d="M102.124 43.1948C100.996 44.1257 99.8865 44.9347 98.7387 45.7632C97.591 46.5918 96.4188 47.361 95.2126 48.1075C94.0063 48.854 92.7684 49.5696 91.4704 50.2195C90.1434 50.9069 88.7619 51.4834 87.3399 51.9431C86.9638 52.0633 86.5975 52.1624 86.1751 52.268C85.7621 52.3576 85.3445 52.4246 84.9241 52.4687C84.1679 52.5499 83.4563 52.5865 82.7472 52.619C81.3338 52.6839 79.9472 52.6823 78.5623 52.6726C75.7924 52.6393 73.046 52.5061 70.2875 52.2624L70.2461 49.7443C72.9551 49.3958 75.6762 49.0944 78.369 48.7914C79.7149 48.6452 81.0576 48.4812 82.3695 48.3098C83.0193 48.2212 83.6692 48.1173 84.2686 48.006C84.5263 47.9605 84.7812 47.9006 85.0322 47.8265C85.2685 47.7452 85.5585 47.6526 85.8266 47.5446C86.9778 47.0772 88.0952 46.5306 89.1708 45.9086C90.2844 45.2694 91.3989 44.583 92.4939 43.8536C93.5888 43.1241 94.6789 42.3687 95.7593 41.5978C96.8396 40.827 97.9191 40.0106 98.9329 39.2422L102.124 43.1948Z" fill="#FFC3BD"/>
<path d="M105.401 40.3254C104.918 43.4982 98.2378 48.3516 98.2378 48.3516L93.4453 42.4032C95.5447 40.1627 97.7708 38.0443 100.113 36.0585C102.269 34.2958 105.925 36.8732 105.401 40.3254Z" fill="#407BFF"/>
<path d="M71.1691 50.0089L69.2634 48.6523L69.0547 52.938C69.3427 52.9387 69.6266 52.869 69.8815 52.7347C70.1363 52.6005 70.3545 52.4059 70.5168 52.1679L71.1691 50.0089Z" fill="#FFC3BD"/>
<path d="M67.5422 47.4043L67.1523 51.6046L69.0564 52.9376L69.2651 48.652L67.5422 47.4043Z" fill="#FFC3BD"/>
<path opacity="0.2" d="M97.9746 133.841L98.6131 137.77L101.975 137.392L101.337 133.463L97.9746 133.841Z" fill="black"/>
<path opacity="0.2" d="M116.788 134.045H113.43L113.862 138.051H117.22L116.788 134.045Z" fill="black"/>
<path d="M116.835 36.159C117.085 36.2151 117.322 36.3205 117.53 36.4693C117.739 36.618 117.916 36.8069 118.05 37.025C118.185 37.2431 118.274 37.4858 118.314 37.739C118.353 37.9922 118.341 38.2506 118.279 38.4992C117.551 41.5221 117.002 44.5855 116.635 47.6732C116.317 50.2725 116.127 52.7557 116.009 55.0065C115.73 60.2823 115.846 64.304 115.689 65.667C113.064 65.485 103.174 64.797 97.7808 64.4201C95.9605 50.1693 98.0935 41.075 99.2917 37.3799C99.4751 36.8041 99.8184 36.2923 100.281 35.904C100.744 35.5157 101.308 35.267 101.907 35.1867C102.594 35.0965 103.416 35.0096 104.284 34.9584C104.588 34.9389 104.896 34.9284 105.209 34.9219C107.755 34.952 110.297 35.1289 112.823 35.4515C113.302 35.5084 113.786 35.579 114.257 35.6546C115.199 35.8121 116.094 35.9933 116.835 36.159Z" fill="#346AE1"/>
<path d="M112.666 26.8301C112.016 29.2458 111.222 33.7004 112.822 35.455C108.671 38.2468 106.022 42.1775 105.257 41.3237C104.857 40.877 104.683 35.7068 105.209 34.9237C107.987 34.4623 108.057 32.4308 107.714 30.4943L112.666 26.8301Z" fill="#FFC3BD"/>
<path d="M112.501 34.4551C112.501 34.4551 105.737 37.4484 104.84 44.1416C106.703 41.9842 110.819 39.6367 110.819 39.6367L109.004 39.1152C110.158 38.677 111.354 38.3554 112.572 38.155C112.371 37.2307 113.444 35.3868 113.444 35.3868L112.501 34.4551Z" fill="#407BFF"/>
<path d="M106.398 34.3457C106.398 34.3457 107.299 38.1683 104.84 44.1403C104.356 42.0559 103.691 40.0175 102.854 38.0481L104.51 38.4989C104.51 38.4989 104.429 37.7281 103.087 36.703C103.646 35.8912 104.343 35.1839 105.147 34.613L106.398 34.3457Z" fill="#407BFF"/>
<path opacity="0.2" d="M110.649 28.3262L107.719 30.4934C107.806 30.9443 107.853 31.402 107.859 31.8612C108.915 31.78 110.426 30.7379 110.614 29.6535C110.706 29.2168 110.718 28.7671 110.649 28.3262Z" fill="black"/>
<path d="M104.075 19.8368C102.438 19.9075 101.535 22.7294 103.196 25.0533C104.857 27.3773 106.28 19.7418 104.075 19.8368Z" fill="#263238"/>
<path d="M112.144 22.3205C112.338 25.646 112.621 27.5817 111.157 29.4768C108.956 32.3271 104.7 31.3052 103.516 28.1048C102.451 25.2244 102.312 20.2703 105.384 18.5685C106.06 18.1897 106.821 17.9899 107.596 17.9883C108.371 17.9866 109.133 18.1831 109.811 18.5591C110.488 18.9351 111.058 19.4781 111.466 20.1364C111.875 20.7947 112.108 21.5466 112.144 22.3205Z" fill="#FFC3BD"/>
<path d="M112.633 24.8744C111.744 24.3531 110.968 23.6601 110.349 22.8358C109.73 22.0115 109.282 21.0723 109.029 20.0729C108.055 20.3036 103.196 22.539 101.702 20.0729C100.209 17.6068 102.088 16.1601 104.883 17.6783C103.647 15.4965 104.771 14.4291 108.656 14.3349C112.54 14.2407 112.018 16.4924 112.018 16.4924C112.018 16.4924 114.958 15.2122 115.998 17.4671C117.203 20.0583 114.98 24.4828 112.633 24.8744Z" fill="#263238"/>
<path d="M111.352 15.8973C111.387 15.8973 112.823 16.2425 114.476 14.5781C114.18 15.998 111.612 16.9435 111.612 16.9435L111.352 15.8973Z" fill="#263238"/>
<path d="M113.282 20.7617C111.733 20.2264 109.858 22.5211 110.551 25.2918C111.243 28.0625 115.369 21.483 113.282 20.7617Z" fill="#263238"/>
<path d="M114.159 25.084C114.017 25.9098 113.554 26.6459 112.871 27.1309C111.96 27.7662 111.14 27.04 111.084 25.9889C111.037 25.0434 111.452 23.5731 112.514 23.3562C112.747 23.3127 112.987 23.3281 113.213 23.401C113.438 23.4739 113.642 23.602 113.806 23.7736C113.969 23.9453 114.087 24.1551 114.149 24.3839C114.21 24.6128 114.214 24.8534 114.159 25.084Z" fill="#FFC3BD"/>
<path d="M102.828 102.235C103.635 92.4179 109.552 65.2411 109.552 65.2411L97.7784 64.4199C97.7784 64.4199 93.2386 91.3969 92.8909 101.635C92.5286 112.28 96.8102 135.939 96.8102 135.939L102.456 135.296C102.456 135.296 102.019 112.093 102.828 102.235Z" fill="#407BFF"/>
<path opacity="0.5" d="M102.828 102.235C103.635 92.4179 109.552 65.2411 109.552 65.2411L97.7784 64.4199C97.7784 64.4199 93.2386 91.3969 92.8909 101.635C92.5286 112.28 96.8102 135.939 96.8102 135.939L102.456 135.296C102.456 135.296 102.019 112.093 102.828 102.235Z" fill="white"/>
<path opacity="0.2" d="M105.118 74.4453C102.744 77.48 102.702 88.1381 103.62 96.0124C104.495 90.3321 105.873 83.1181 107.081 77.1047L105.118 74.4453Z" fill="black"/>
<path d="M104.131 64.8652C104.131 64.8652 105.401 93.5999 106.819 103.331C108.37 113.988 112.311 137.278 112.311 137.278H118.458C118.458 137.278 117.447 115.342 116.635 104.872C115.712 92.9469 115.686 65.671 115.686 65.671L104.131 64.8652Z" fill="#407BFF"/>
<path opacity="0.5" d="M104.131 64.8652C104.131 64.8652 105.401 93.5999 106.819 103.331C108.37 113.988 112.311 137.278 112.311 137.278H118.458C118.458 137.278 117.447 115.342 116.635 104.872C115.712 92.9469 115.686 65.671 115.686 65.671L104.131 64.8652Z" fill="white"/>
<path d="M111.574 137.406H118.812V135.244L110.721 135.104L111.574 137.406Z" fill="#407BFF"/>
<path d="M96.564 136.576L103.293 135.813L103.049 133.639L95.5137 134.377L96.564 136.576Z" fill="#407BFF"/>
<path d="M107.249 23.8444C107.281 24.1133 107.168 24.3481 106.989 24.3692C106.81 24.3903 106.644 24.1897 106.613 23.9208C106.581 23.6519 106.694 23.4172 106.873 23.3961C107.051 23.3749 107.217 23.5756 107.249 23.8444Z" fill="#263238"/>
<path d="M104.211 24.2097C104.243 24.4785 104.13 24.7133 103.951 24.7344C103.772 24.7555 103.606 24.5549 103.574 24.286C103.541 24.0171 103.655 23.7824 103.834 23.7613C104.013 23.7402 104.178 23.944 104.211 24.2097Z" fill="#263238"/>
<path d="M105.193 24.2246C104.971 25.0846 104.632 25.91 104.186 26.6777C104.385 26.7869 104.606 26.8513 104.832 26.8663C105.059 26.8813 105.286 26.8466 105.498 26.7646L105.193 24.2246Z" fill="#ED847E"/>
<path d="M108.075 22.748C108.046 22.7565 108.016 22.7571 107.988 22.7498C107.959 22.7425 107.933 22.7276 107.912 22.7066C107.778 22.5588 107.611 22.445 107.424 22.3744C107.237 22.3038 107.036 22.2785 106.838 22.3004C106.796 22.3074 106.754 22.2981 106.719 22.2745C106.684 22.2509 106.66 22.2147 106.652 22.1737C106.647 22.1531 106.647 22.1319 106.651 22.1113C106.656 22.0908 106.664 22.0712 106.676 22.0539C106.687 22.0365 106.703 22.0217 106.72 22.0104C106.738 21.999 106.758 21.9913 106.778 21.9877C107.029 21.9552 107.284 21.9834 107.521 22.0699C107.758 22.1565 107.971 22.2987 108.142 22.4848C108.171 22.5151 108.187 22.5554 108.187 22.5973C108.187 22.6392 108.171 22.6795 108.142 22.7098C108.123 22.728 108.1 22.7411 108.075 22.748Z" fill="#263238"/>
<path d="M106.909 27.8377C107.292 27.7571 107.65 27.5854 107.953 27.3371C108.256 27.0889 108.495 26.7713 108.649 26.4114C108.657 26.3898 108.655 26.3662 108.646 26.3456C108.636 26.325 108.618 26.3092 108.596 26.3017C108.575 26.2942 108.551 26.2955 108.531 26.3054C108.51 26.3153 108.494 26.333 108.487 26.3545C108.339 26.6856 108.115 26.9774 107.834 27.2062C107.553 27.4351 107.221 27.5946 106.867 27.672C106.856 27.6745 106.846 27.6792 106.837 27.6857C106.828 27.6922 106.82 27.7004 106.814 27.7099C106.808 27.7194 106.804 27.73 106.802 27.7411C106.8 27.7521 106.8 27.7634 106.803 27.7744C106.805 27.7853 106.81 27.7957 106.817 27.8048C106.823 27.8139 106.831 27.8217 106.841 27.8277C106.85 27.8336 106.861 27.8377 106.872 27.8395C106.883 27.8414 106.894 27.8411 106.905 27.8386L106.909 27.8377Z" fill="#263238"/>
<path d="M102.783 23.3193C102.751 23.3299 102.716 23.3299 102.684 23.3193C102.645 23.3047 102.613 23.2756 102.594 23.2379C102.576 23.2002 102.573 23.1569 102.586 23.117C102.662 22.8761 102.795 22.6571 102.974 22.4786C103.153 22.3001 103.372 22.1675 103.614 22.0919C103.654 22.0827 103.697 22.0895 103.733 22.111C103.769 22.1325 103.795 22.167 103.806 22.2073C103.815 22.2479 103.809 22.2906 103.787 22.3264C103.766 22.3622 103.732 22.3885 103.691 22.3998C103.502 22.463 103.33 22.5703 103.19 22.713C103.05 22.8556 102.946 23.0294 102.887 23.2202C102.878 23.2436 102.864 23.2647 102.846 23.2818C102.828 23.299 102.806 23.3118 102.783 23.3193Z" fill="#263238"/>
<path d="M112.884 142.015C112.654 142.033 112.425 141.973 112.234 141.844C112.175 141.792 112.129 141.727 112.101 141.654C112.072 141.581 112.062 141.502 112.072 141.424C112.072 141.377 112.084 141.332 112.108 141.292C112.133 141.252 112.167 141.22 112.208 141.199C112.581 141.007 113.662 141.673 113.784 141.749C113.797 141.758 113.808 141.77 113.815 141.784C113.821 141.799 113.823 141.815 113.821 141.831C113.818 141.846 113.811 141.86 113.8 141.872C113.79 141.883 113.776 141.892 113.761 141.896C113.474 141.968 113.18 142.008 112.884 142.015ZM112.385 141.32C112.35 141.319 112.315 141.325 112.282 141.34C112.266 141.349 112.252 141.363 112.243 141.379C112.234 141.396 112.23 141.415 112.232 141.433C112.225 141.487 112.231 141.541 112.25 141.591C112.268 141.641 112.299 141.686 112.34 141.722C112.715 141.893 113.141 141.914 113.532 141.782C113.182 141.555 112.791 141.398 112.381 141.32H112.385Z" fill="#407BFF"/>
<path d="M113.739 141.896C113.726 141.896 113.713 141.893 113.701 141.887C113.354 141.698 112.683 140.962 112.753 140.587C112.765 140.528 112.796 140.476 112.842 140.438C112.888 140.4 112.946 140.379 113.006 140.378C113.066 140.371 113.128 140.376 113.186 140.394C113.244 140.411 113.298 140.441 113.345 140.481C113.734 140.8 113.815 141.768 113.817 141.809C113.818 141.823 113.816 141.837 113.809 141.85C113.803 141.863 113.793 141.874 113.782 141.882C113.769 141.89 113.755 141.896 113.739 141.896ZM113.062 140.536H113.025C112.922 140.549 112.913 140.596 112.909 140.617C112.867 140.838 113.295 141.394 113.64 141.656C113.617 141.272 113.479 140.904 113.244 140.6C113.193 140.558 113.128 140.535 113.062 140.536Z" fill="#407BFF"/>
<path d="M98.8842 141.384L98.8712 141.39C98.3456 141.558 97.405 141.796 97.0029 141.515C96.9436 141.474 96.8951 141.419 96.8617 141.355C96.8283 141.291 96.811 141.22 96.8112 141.147C96.808 141.104 96.8161 141.06 96.8348 141.021C96.8534 140.982 96.882 140.948 96.9176 140.922C97.2953 140.657 98.7144 141.179 98.8753 141.24C98.889 141.246 98.9009 141.256 98.9095 141.268C98.9181 141.28 98.9232 141.295 98.9241 141.31C98.925 141.325 98.9218 141.34 98.9147 141.353C98.9077 141.366 98.8971 141.377 98.8842 141.385V141.384ZM97.0297 141.039L97.011 141.051C96.9965 141.061 96.985 141.074 96.9778 141.09C96.9706 141.106 96.9681 141.124 96.9704 141.141C96.9694 141.189 96.9801 141.236 97.0017 141.278C97.0232 141.321 97.0549 141.357 97.0939 141.385C97.5878 141.539 98.1206 141.51 98.595 141.303C98.1034 141.085 97.5648 140.995 97.0289 141.039H97.0297Z" fill="#407BFF"/>
<path d="M98.8844 141.383C98.8653 141.393 98.8431 141.395 98.8227 141.388C98.4003 141.253 97.523 140.622 97.5393 140.239C97.5433 140.149 97.5945 140.031 97.809 139.985C97.8864 139.967 97.9665 139.966 98.0445 139.981C98.1224 139.996 98.1965 140.026 98.2622 140.071C98.6066 140.4 98.8385 140.829 98.925 141.297C98.9278 141.311 98.927 141.325 98.9227 141.338C98.9185 141.352 98.9109 141.363 98.9007 141.373C98.8957 141.377 98.8902 141.381 98.8844 141.383ZM97.7545 140.173C97.7001 140.202 97.6985 140.236 97.6977 140.249C97.6863 140.48 98.2923 140.985 98.7317 141.185C98.6505 140.811 98.4563 140.471 98.1753 140.211C98.1273 140.177 98.0729 140.154 98.0155 140.143C97.9582 140.132 97.8992 140.133 97.8423 140.146C97.8119 140.151 97.7824 140.16 97.7545 140.173Z" fill="#407BFF"/>
<path d="M119.668 41.0004C119.583 42.3114 119.428 43.5323 119.268 44.793C119.108 46.0536 118.893 47.2891 118.657 48.536C118.189 51.0827 117.498 53.5833 116.593 56.009L116.194 56.9489L116.093 57.1836L116.068 57.2421L116.026 57.3314L115.909 57.5629C115.755 57.8442 115.569 58.1074 115.356 58.3476C115.006 58.7417 114.597 59.0788 114.143 59.3467C113.775 59.5656 113.389 59.7528 112.99 59.9064C111.66 60.3863 110.268 60.6767 108.857 60.769C106.295 60.9605 103.719 60.8643 101.178 60.4823L101.27 57.9642L103.045 57.7636C103.641 57.6929 104.233 57.6011 104.822 57.5199C105.997 57.3469 107.16 57.1536 108.269 56.8961C109.295 56.6873 110.292 56.3568 111.239 55.9116C111.494 55.8042 111.718 55.6334 111.889 55.4153C111.899 55.3576 111.771 55.6102 111.922 55.2065L112.187 54.4299C112.838 52.2037 113.336 49.9357 113.677 47.6416C113.868 46.4736 114.031 45.295 114.189 44.1131C114.347 42.9312 114.477 41.7249 114.601 40.5918L119.668 41.0004Z" fill="#FFC3BD"/>
<path d="M119.961 38.5679C121.604 41.324 120.205 49.9862 120.205 49.9862L111.595 48.395C111.595 48.395 111.128 43.44 112.767 39.6271C114.547 35.4771 117.97 35.2286 119.961 38.5679Z" fill="#407BFF"/>
<path d="M98.858 65.7554L94.2889 44.5027C94.0696 43.5951 93.5611 42.7835 92.8403 42.1901C92.1194 41.5967 91.2252 41.2537 90.2924 41.2129H72.7852C73.7181 41.2535 74.6125 41.5964 75.3335 42.1898C76.0545 42.7832 76.5631 43.595 76.7824 44.5027L81.3516 65.7554C81.5709 66.6629 82.0793 67.4746 82.8001 68.068C83.521 68.6614 84.4152 69.0043 85.348 69.0452H102.854C101.922 69.0043 101.027 68.6614 100.307 68.068C99.5857 67.4746 99.0773 66.6629 98.858 65.7554Z" fill="#263238"/>
<path opacity="0.7" d="M98.858 65.7554L94.2889 44.5027C94.0696 43.5951 93.5611 42.7835 92.8403 42.1901C92.1194 41.5967 91.2252 41.2537 90.2924 41.2129H72.7852C73.7181 41.2535 74.6125 41.5964 75.3335 42.1898C76.0545 42.7832 76.5631 43.595 76.7824 44.5027L81.3516 65.7554C81.5709 66.6629 82.0793 67.4746 82.8001 68.068C83.521 68.6614 84.4152 69.0043 85.348 69.0452H102.854C101.922 69.0043 101.027 68.6614 100.307 68.068C99.5857 67.4746 99.0773 66.6629 98.858 65.7554Z" fill="#407BFF"/>
<path d="M72.786 41.2129H90.2924C89.3961 41.2297 88.5367 41.5733 87.8759 42.1791C87.2151 42.7849 86.7982 43.6112 86.7037 44.5027L82.1622 93.8898C82.0676 94.7812 81.6507 95.6074 80.9899 96.2132C80.3291 96.819 79.4698 97.1626 78.5735 97.1796H67.6466C67.2257 97.1874 66.808 97.1052 66.4215 96.9385C66.0349 96.7717 65.6885 96.5243 65.4053 96.2129C65.1221 95.9014 64.9087 95.533 64.7795 95.1323C64.6502 94.7317 64.608 94.3081 64.6558 93.8898L69.1981 44.5027C69.2926 43.6113 69.7093 42.7851 70.37 42.1793C71.0306 41.5736 71.8898 41.2299 72.786 41.2129Z" fill="#407BFF"/>
<path d="M75.5823 93.8887C75.5345 94.3069 75.5767 94.7306 75.7059 95.1312C75.8352 95.5318 76.0486 95.9002 76.3317 96.2117C76.6149 96.5232 76.9614 96.7706 77.3479 96.9373C77.7345 97.104 78.1522 97.1862 78.5731 97.1784H61.0667C60.6457 97.1864 60.228 97.1043 59.8413 96.9376C59.4547 96.7709 59.1082 96.5235 58.825 96.212C58.5418 95.9005 58.3284 95.532 58.1992 95.1313C58.07 94.7306 58.0279 94.307 58.0758 93.8887H75.5823Z" fill="#263238"/>
<path opacity="0.7" d="M75.5823 93.8887C75.5345 94.3069 75.5767 94.7306 75.7059 95.1312C75.8352 95.5318 76.0486 95.9002 76.3317 96.2117C76.6149 96.5232 76.9614 96.7706 77.3479 96.9373C77.7345 97.104 78.1522 97.1862 78.5731 97.1784H61.0667C60.6457 97.1864 60.228 97.1043 59.8413 96.9376C59.4547 96.7709 59.1082 96.5235 58.825 96.212C58.5418 95.9005 58.3284 95.532 58.1992 95.1313C58.07 94.7306 58.0279 94.307 58.0758 93.8887H75.5823Z" fill="#407BFF"/>
<g opacity="0.5">
<path opacity="0.5" d="M83.6701 46.7474H71.8237C71.7323 46.7487 71.6416 46.7304 71.5577 46.694C71.4738 46.6575 71.3986 46.6036 71.3372 46.5358C71.2757 46.468 71.2294 46.388 71.2012 46.3009C71.1731 46.2139 71.1638 46.1219 71.1739 46.031C71.195 45.837 71.2859 45.6574 71.4297 45.5255C71.5734 45.3937 71.7603 45.3187 71.9553 45.3145H83.8001C83.8916 45.3133 83.9823 45.3315 84.0662 45.368C84.1501 45.4044 84.2252 45.4583 84.2867 45.5261C84.3481 45.5939 84.3945 45.6739 84.4226 45.761C84.4508 45.848 84.4601 45.94 84.4499 46.031C84.4289 46.2246 84.3382 46.4041 84.1948 46.5358C84.0513 46.6676 83.8649 46.7428 83.6701 46.7474Z" fill="white"/>
<path opacity="0.5" d="M83.3186 50.6224H71.4722C71.3807 50.6236 71.29 50.6054 71.2061 50.5689C71.1222 50.5325 71.0471 50.4786 70.9856 50.4108C70.9241 50.343 70.8778 50.263 70.8496 50.1759C70.8215 50.0889 70.8122 49.9969 70.8223 49.9059C70.8434 49.712 70.9343 49.5324 71.0781 49.4005C71.2219 49.2687 71.4087 49.1937 71.6038 49.1895H83.4502C83.5417 49.1883 83.6323 49.2065 83.7162 49.2429C83.8001 49.2794 83.8753 49.3333 83.9368 49.4011C83.9982 49.4689 84.0445 49.5489 84.0727 49.636C84.1008 49.723 84.1102 49.815 84.1 49.9059C84.0791 50.0999 83.9883 50.2797 83.8444 50.4116C83.7006 50.5434 83.5137 50.6184 83.3186 50.6224Z" fill="white"/>
<path opacity="0.5" d="M80.0631 54.4993H71.1206C71.0291 54.5006 70.9385 54.4824 70.8546 54.4459C70.7707 54.4094 70.6955 54.3555 70.634 54.2878C70.5726 54.22 70.5262 54.1399 70.4981 54.0529C70.4699 53.9658 70.4606 53.8738 70.4708 53.7829C70.4918 53.589 70.5828 53.4093 70.7265 53.2775C70.8703 53.1457 71.0572 53.0707 71.2522 53.0665H80.1947C80.2862 53.0652 80.3768 53.0834 80.4607 53.1199C80.5446 53.1564 80.6198 53.2103 80.6813 53.2781C80.7427 53.3458 80.7891 53.4259 80.8172 53.5129C80.8454 53.6 80.8547 53.692 80.8445 53.7829C80.8235 53.9768 80.7326 54.1565 80.5888 54.2883C80.445 54.4202 80.2581 54.4952 80.0631 54.4993Z" fill="white"/>
<path opacity="0.5" d="M73.7994 58.3724H70.7671C70.6756 58.3737 70.5849 58.3554 70.501 58.319C70.4172 58.2825 70.342 58.2286 70.2805 58.1608C70.2191 58.093 70.1727 58.013 70.1446 57.9259C70.1164 57.8389 70.1071 57.7469 70.1173 57.656C70.1381 57.4621 70.2289 57.2825 70.3725 57.1506C70.5162 57.0188 70.7029 56.9437 70.8979 56.9395H73.931C74.0224 56.9383 74.1131 56.9565 74.197 56.993C74.2809 57.0294 74.3561 57.0834 74.4175 57.1511C74.479 57.2189 74.5253 57.2989 74.5535 57.386C74.5816 57.473 74.5909 57.565 74.5808 57.656C74.5597 57.8499 74.4688 58.0295 74.325 58.1614C74.1812 58.2932 73.9944 58.3682 73.7994 58.3724Z" fill="white"/>
<path opacity="0.5" d="M82.2593 62.2474H70.4097C70.3182 62.2486 70.2275 62.2304 70.1436 62.194C70.0597 62.1575 69.9846 62.1036 69.9231 62.0358C69.8616 61.968 69.8153 61.888 69.7872 61.8009C69.759 61.7139 69.7497 61.6219 69.7598 61.531C69.7809 61.337 69.8718 61.1574 70.0156 61.0255C70.1594 60.8937 70.3462 60.8187 70.5413 60.8145H82.3877C82.4792 60.8133 82.5698 60.8315 82.6537 60.868C82.7376 60.9044 82.8128 60.9583 82.8743 61.0261C82.9357 61.0939 82.9821 61.1739 83.0102 61.261C83.0384 61.348 83.0477 61.44 83.0375 61.531C83.0165 61.7243 82.9261 61.9036 82.783 62.0353C82.6399 62.1671 82.4538 62.2424 82.2593 62.2474Z" fill="white"/>
<path opacity="0.5" d="M77.2446 66.1224H70.064C69.9725 66.1237 69.8818 66.1054 69.7979 66.069C69.714 66.0325 69.6388 65.9786 69.5774 65.9108C69.5159 65.8431 69.4696 65.763 69.4414 65.6759C69.4133 65.5889 69.404 65.4969 69.4141 65.406C69.435 65.2121 69.5257 65.0325 69.6694 64.9006C69.8131 64.7688 69.9998 64.6937 70.1947 64.6895H77.3754C77.4668 64.6883 77.5575 64.7065 77.6414 64.743C77.7253 64.7794 77.8005 64.8334 77.8619 64.9011C77.9234 64.9689 77.9697 65.0489 77.9979 65.136C78.026 65.223 78.0354 65.315 78.0252 65.406C78.0042 65.5998 77.9134 65.7793 77.7698 65.9111C77.6261 66.0429 77.4395 66.118 77.2446 66.1224Z" fill="white"/>
<path opacity="0.5" d="M81.5549 69.9974H69.7085C69.617 69.9986 69.5263 69.9804 69.4424 69.944C69.3585 69.9075 69.2834 69.8536 69.2219 69.7858C69.1605 69.718 69.1141 69.638 69.086 69.5509C69.0578 69.4639 69.0485 69.3719 69.0587 69.281C69.0797 69.087 69.1706 68.9074 69.3144 68.7755C69.4582 68.6437 69.6451 68.5687 69.8401 68.5645H81.6873C81.7788 68.5633 81.8695 68.5815 81.9534 68.618C82.0373 68.6544 82.1124 68.7083 82.1739 68.7761C82.2353 68.8439 82.2817 68.9239 82.3098 69.011C82.338 69.098 82.3473 69.19 82.3371 69.281C82.3161 69.475 82.225 69.6548 82.0811 69.7866C81.9371 69.9185 81.7501 69.9934 81.5549 69.9974Z" fill="white"/>
<path opacity="0.5" d="M78.2994 73.8744H69.3569C69.2655 73.8756 69.1748 73.8574 69.0909 73.8209C69.007 73.7844 68.9318 73.7305 68.8704 73.6628C68.8089 73.595 68.7626 73.5149 68.7344 73.4279C68.7063 73.3409 68.697 73.2488 68.7071 73.1579C68.7282 72.964 68.8191 72.7843 68.9629 72.6525C69.1067 72.5207 69.2935 72.4457 69.4885 72.4415H78.431C78.5225 72.4402 78.6132 72.4584 78.6971 72.4949C78.781 72.5314 78.8561 72.5853 78.9176 72.6531C78.9791 72.7208 79.0254 72.8009 79.0535 72.8879C79.0817 72.975 79.091 73.067 79.0808 73.1579C79.0598 73.3518 78.9689 73.5315 78.8251 73.6633C78.6813 73.7952 78.4945 73.8702 78.2994 73.8744Z" fill="white"/>
<path opacity="0.5" d="M72.0381 77.7474H69.0034C68.912 77.7486 68.8213 77.7304 68.7374 77.694C68.6535 77.6575 68.5783 77.6036 68.5168 77.5358C68.4554 77.468 68.4091 77.388 68.3809 77.3009C68.3528 77.2139 68.3434 77.1219 68.3536 77.031C68.3746 76.837 68.4656 76.6574 68.6093 76.5255C68.7531 76.3937 68.94 76.3187 69.135 76.3145H72.1714C72.2628 76.3133 72.3535 76.3315 72.4374 76.368C72.5213 76.4044 72.5965 76.4583 72.6579 76.5261C72.7194 76.5939 72.7657 76.6739 72.7939 76.761C72.822 76.848 72.8313 76.94 72.8212 77.031C72.8001 77.2252 72.7089 77.405 72.5648 77.5369C72.4207 77.6688 72.2335 77.7436 72.0381 77.7474Z" fill="white"/>
<path opacity="0.5" d="M80.4983 81.6244H68.6519C68.5604 81.6256 68.4697 81.6074 68.3858 81.5709C68.3019 81.5344 68.2267 81.4805 68.1653 81.4128C68.1038 81.345 68.0575 81.2649 68.0293 81.1779C68.0012 81.0909 67.9919 80.9988 68.002 80.9079C68.0231 80.714 68.114 80.5343 68.2578 80.4025C68.4016 80.2707 68.5884 80.1957 68.7835 80.1915H80.6299C80.7213 80.1902 80.812 80.2084 80.8959 80.2449C80.9798 80.2814 81.055 80.3353 81.1164 80.4031C81.1779 80.4708 81.2242 80.5509 81.2524 80.6379C81.2805 80.725 81.2898 80.817 81.2797 80.9079C81.2586 81.1018 81.1677 81.2815 81.0239 81.4133C80.8802 81.5452 80.6933 81.6202 80.4983 81.6244Z" fill="white"/>
<path opacity="0.5" d="M75.479 85.4994H68.2983C68.2069 85.5006 68.1162 85.4824 68.0323 85.4459C67.9484 85.4094 67.8732 85.3555 67.8118 85.2878C67.7503 85.22 67.704 85.1399 67.6758 85.0529C67.6477 84.9659 67.6384 84.8738 67.6485 84.7829C67.6694 84.5889 67.7603 84.4092 67.9041 84.2773C68.0479 84.1454 68.2349 84.0705 68.4299 84.0665H75.6098C75.7012 84.0652 75.7919 84.0834 75.8758 84.1199C75.9597 84.1564 76.0349 84.2103 76.0963 84.2781C76.1578 84.3458 76.2041 84.4259 76.2323 84.5129C76.2604 84.6 76.2697 84.692 76.2596 84.7829C76.2386 84.9767 76.1478 85.1563 76.0041 85.2881C75.8605 85.4199 75.6739 85.495 75.479 85.4994Z" fill="white"/>
<path opacity="0.5" d="M79.7932 89.3744H67.9468C67.8553 89.3756 67.7646 89.3574 67.6807 89.3209C67.5968 89.2844 67.5217 89.2305 67.4602 89.1628C67.3988 89.095 67.3524 89.0149 67.3243 88.9279C67.2961 88.8409 67.2868 88.7488 67.2969 88.6579C67.318 88.464 67.4089 88.2843 67.5527 88.1525C67.6965 88.0207 67.8833 87.9457 68.0784 87.9415H79.9232C80.0146 87.9402 80.1053 87.9584 80.1892 87.9949C80.2731 88.0314 80.3483 88.0853 80.4097 88.1531C80.4712 88.2208 80.5175 88.3009 80.5457 88.3879C80.5738 88.475 80.5831 88.567 80.573 88.6579C80.552 88.8516 80.4613 89.031 80.3178 89.1628C80.1744 89.2946 79.9879 89.3698 79.7932 89.3744Z" fill="white"/>
</g>
<path d="M102.301 58.2405L99.7289 56.0059L98.5234 60.1193C98.5234 60.1193 101.136 61.5359 102.041 60.2354L102.301 58.2405Z" fill="#FFC3BD"/>
<path d="M96.9285 55.8457L96.0918 59.2931L98.5222 60.1216L99.7276 56.0073L96.9285 55.8457Z" fill="#FFC3BD"/>
</svg>
