<svg width="25" height="24" viewBox="0 0 25 24" fill="none" xmlns="http://www.w3.org/2000/svg">
<path d="M21.3401 4.61012C20.8294 4.09912 20.2229 3.69376 19.5555 3.4172C18.888 3.14064 18.1726 2.99829 17.4501 2.99829C16.7276 2.99829 16.0122 3.14064 15.3448 3.4172C14.6773 3.69376 14.0709 4.09912 13.5601 4.61012L12.5001 5.67012L11.4401 4.61012C10.4084 3.57842 9.00915 2.99883 7.55012 2.99883C6.09109 2.99883 4.69181 3.57842 3.66012 4.61012C2.62843 5.64181 2.04883 7.04108 2.04883 8.50012C2.04883 9.95915 2.62843 11.3584 3.66012 12.3901L4.72012 13.4501L12.5001 21.2301L20.2801 13.4501L21.3401 12.3901C21.8511 11.8794 22.2565 11.2729 22.533 10.6055C22.8096 9.93801 22.9519 9.2226 22.9519 8.50012C22.9519 7.77763 22.8096 7.06222 22.533 6.39476C22.2565 5.7273 21.8511 5.12087 21.3401 4.61012V4.61012Z" stroke="#D9D9D9" stroke-width="2" stroke-linecap="round" stroke-linejoin="round"/>
</svg>
