<svg width="23" height="22" viewBox="0 0 23 22" fill="none" xmlns="http://www.w3.org/2000/svg">
<path d="M20.3401 3.60987C19.8294 3.09888 19.2229 2.69352 18.5555 2.41696C17.888 2.14039 17.1726 1.99805 16.4501 1.99805C15.7276 1.99805 15.0122 2.14039 14.3448 2.41696C13.6773 2.69352 13.0709 3.09888 12.5601 3.60987L11.5001 4.66987L10.4401 3.60987C9.40843 2.57818 8.00915 1.99858 6.55012 1.99858C5.09109 1.99858 3.69181 2.57818 2.66012 3.60987C1.62843 4.64156 1.04883 6.04084 1.04883 7.49987C1.04883 8.95891 1.62843 10.3582 2.66012 11.3899L3.72012 12.4499L11.5001 20.2299L19.2801 12.4499L20.3401 11.3899C20.8511 10.8791 21.2565 10.2727 21.533 9.60523C21.8096 8.93777 21.9519 8.22236 21.9519 7.49987C21.9519 6.77738 21.8096 6.06198 21.533 5.39452C21.2565 4.72706 20.8511 4.12063 20.3401 3.60987V3.60987Z" stroke="#4BAEEA" stroke-width="2" stroke-linecap="round" stroke-linejoin="round"/>
</svg>
