<svg width="20" height="20" viewBox="0 0 20 20" fill="none" xmlns="http://www.w3.org/2000/svg">
<path d="M15.8333 9.16675H4.16667C3.24619 9.16675 2.5 9.91294 2.5 10.8334V16.6667C2.5 17.5872 3.24619 18.3334 4.16667 18.3334H15.8333C16.7538 18.3334 17.5 17.5872 17.5 16.6667V10.8334C17.5 9.91294 16.7538 9.16675 15.8333 9.16675Z" stroke="#D9D9D9" stroke-width="2" stroke-linecap="round" stroke-linejoin="round"/>
<path d="M5.83398 9.16675V5.83341C5.83398 4.72835 6.27297 3.66854 7.05437 2.88714C7.83577 2.10573 8.89558 1.66675 10.0007 1.66675C11.1057 1.66675 12.1655 2.10573 12.9469 2.88714C13.7283 3.66854 14.1673 4.72835 14.1673 5.83341V9.16675" stroke="#D9D9D9" stroke-width="2" stroke-linecap="round" stroke-linejoin="round"/>
</svg>
