<svg width="16" height="16" viewBox="0 0 16 16" fill="none" xmlns="http://www.w3.org/2000/svg">
<path d="M12.2016 7.40234H3.80156C3.13882 7.40234 2.60156 7.9396 2.60156 8.60234V12.8023C2.60156 13.4651 3.13882 14.0023 3.80156 14.0023H12.2016C12.8643 14.0023 13.4016 13.4651 13.4016 12.8023V8.60234C13.4016 7.9396 12.8643 7.40234 12.2016 7.40234Z" stroke="#4BAEEA" stroke-width="1.2" stroke-linecap="round" stroke-linejoin="round"/>
<path d="M5 7.4V5C5 4.20435 5.31607 3.44129 5.87868 2.87868C6.44129 2.31607 7.20435 2 8 2C8.79565 2 9.55871 2.31607 10.1213 2.87868C10.6839 3.44129 11 4.20435 11 5V7.4" stroke="#4BAEEA" stroke-width="1.2" stroke-linecap="round" stroke-linejoin="round"/>
</svg>
