<svg width="17" height="17" viewBox="0 0 17 17" fill="none" xmlns="http://www.w3.org/2000/svg">
<g clip-path="url(#clip0_577_73217)">
<path fill-rule="evenodd" clip-rule="evenodd" d="M5.50257 1.25483C5.69611 1.14424 5.93211 1.13769 6.13148 1.23737L11.1457 3.74448L15.5026 1.25483C15.7089 1.13692 15.9624 1.13777 16.168 1.25705C16.3735 1.37633 16.5 1.59601 16.5 1.83366V12.5003C16.5 12.7396 16.3718 12.9605 16.1641 13.0792L11.4974 15.7458C11.3039 15.8564 11.0679 15.863 10.8685 15.7633L5.85431 13.2562L1.49743 15.7458C1.29109 15.8637 1.03759 15.8629 0.832049 15.7436C0.626506 15.6243 0.5 15.4046 0.5 15.167V4.50033C0.5 4.26109 0.628191 4.04019 0.835907 3.9215L5.50257 1.25483ZM5.85431 2.5895L1.83333 4.88721V14.0182L5.50257 11.9215C5.69611 11.8109 5.93211 11.8044 6.13148 11.904L11.1457 14.4111L15.1667 12.1134V2.98245L11.4974 5.07915C11.3039 5.18974 11.0679 5.1963 10.8685 5.09661L5.85431 2.5895Z" fill="white"/>
<path fill-rule="evenodd" clip-rule="evenodd" d="M5.83268 1.16699C6.20087 1.16699 6.49935 1.46547 6.49935 1.83366V12.5003C6.49935 12.8685 6.20087 13.167 5.83268 13.167C5.46449 13.167 5.16602 12.8685 5.16602 12.5003V1.83366C5.16602 1.46547 5.46449 1.16699 5.83268 1.16699Z" fill="white"/>
<path fill-rule="evenodd" clip-rule="evenodd" d="M11.1667 3.83301C11.5349 3.83301 11.8333 4.13148 11.8333 4.49967V15.1663C11.8333 15.5345 11.5349 15.833 11.1667 15.833C10.7985 15.833 10.5 15.5345 10.5 15.1663V4.49967C10.5 4.13148 10.7985 3.83301 11.1667 3.83301Z" fill="white"/>
</g>
<defs>
<clipPath id="clip0_577_73217">
<rect width="16" height="16" fill="white" transform="translate(0.5 0.5)"/>
</clipPath>
</defs>
</svg>
