<svg width="24" height="24" viewBox="0 0 24 24" fill="none" xmlns="http://www.w3.org/2000/svg">
<path d="M16.8681 17.0259C17.1975 16.7748 17.261 16.3042 17.0099 15.9748C16.7588 15.6454 16.2881 15.5819 15.9587 15.833L16.8681 17.0259ZM11.9693 17.9706V18.7207L11.9816 18.7205L11.9693 17.9706ZM7.98046 8.13741C8.30966 7.88603 8.37275 7.41536 8.12136 7.08615C7.86998 6.75695 7.39931 6.69386 7.0701 6.94525L7.98046 8.13741ZM4.2616 12.8779L4.89304 12.4732L4.2616 12.8779ZM4.26342 11.0914L4.89582 11.4946L4.26342 11.0914ZM10.2273 5.44932C9.82397 5.54372 9.57355 5.9472 9.66795 6.35051C9.76236 6.75382 10.1658 7.00424 10.5691 6.90984L10.2273 5.44932ZM11.9693 6.00002L11.9676 6.75002H11.9693V6.00002ZM18.0092 13.889C17.7425 14.206 17.7832 14.6791 18.1002 14.9458C18.4171 15.2125 18.8902 15.1717 19.1569 14.8548L18.0092 13.889ZM19.6782 11.0945L19.0467 11.4991L19.6782 11.0945ZM19.6779 12.8784L20.3111 13.2803L19.6779 12.8784ZM14.1041 14.0826C14.3865 13.7796 14.3697 13.305 14.0667 13.0226C13.7637 12.7402 13.2891 12.757 13.0067 13.06L14.1041 14.0826ZM10.8945 10.9478C11.1976 10.6655 11.2143 10.1909 10.9319 9.88785C10.6496 9.58481 10.175 9.56805 9.87193 9.85043L10.8945 10.9478ZM15.9587 15.833C14.8071 16.7108 13.4049 17.1971 11.9571 17.2207L11.9816 18.7205C13.7495 18.6916 15.4618 18.0978 16.8681 17.0259L15.9587 15.833ZM11.9693 17.2206C10.2159 17.2206 8.71911 16.4645 7.50658 15.47C6.29177 14.4737 5.40448 13.2712 4.89304 12.4732L3.63016 13.2826C4.18801 14.1531 5.17395 15.4969 6.55537 16.6299C7.93906 17.7647 9.76146 18.7206 11.9693 18.7206V17.2206ZM4.89582 11.4946C5.71776 10.2054 6.76125 9.06841 7.98046 8.13741L7.0701 6.94525C5.7108 7.98323 4.5474 9.2509 3.63101 10.6883L4.89582 11.4946ZM4.89304 12.4732C4.70215 12.1754 4.70157 11.7993 4.89582 11.4946L3.63101 10.6883C3.12655 11.4795 3.11974 12.4862 3.63016 13.2826L4.89304 12.4732ZM10.5691 6.90984C11.0275 6.80254 11.4968 6.74891 11.9676 6.75002L11.9711 5.25002C11.3841 5.24864 10.7989 5.31552 10.2273 5.44932L10.5691 6.90984ZM11.9693 6.75002C13.7234 6.75002 15.2206 7.50673 16.4334 8.50168C17.6484 9.49849 18.5356 10.7014 19.0467 11.4991L20.3097 10.6899C19.7522 9.81979 18.7664 8.47549 17.3848 7.34201C16.0009 6.20667 14.178 5.25002 11.9693 5.25002V6.75002ZM19.0447 12.4764C18.7316 12.9696 18.3857 13.4415 18.0092 13.889L19.1569 14.8548C19.5766 14.356 19.9622 13.83 20.3111 13.2803L19.0447 12.4764ZM19.0467 11.4991C19.2372 11.7964 19.2381 12.1717 19.0447 12.4764L20.3111 13.2803C20.813 12.4896 20.8192 11.485 20.3097 10.6899L19.0467 11.4991ZM13.0067 13.06C12.6341 13.4599 12.073 13.6244 11.5435 13.4892L11.1724 14.9426C12.2334 15.2135 13.3576 14.8838 14.1041 14.0826L13.0067 13.06ZM11.5435 13.4892C11.014 13.354 10.6006 12.9405 10.4653 12.411L9.01198 12.7822C9.28293 13.8431 10.1114 14.6716 11.1724 14.9426L11.5435 13.4892ZM10.4653 12.411C10.3301 11.8815 10.4947 11.3204 10.8945 10.9478L9.87193 9.85043C9.0708 10.5969 8.74102 11.7212 9.01198 12.7822L10.4653 12.411Z" fill="#ABB3BB"/>
<path d="M5 5L19 19" stroke="#ABB3BB" stroke-width="1.5" stroke-linecap="round" stroke-linejoin="round"/>
</svg>
