<svg width="159" height="160" viewBox="0 0 159 160" fill="none" xmlns="http://www.w3.org/2000/svg">
<g clip-path="url(#clip0_1072_101777)">
<path d="M40.3567 153.537C40.1824 153.546 40.0098 153.5 39.8623 153.406C39.7149 153.312 39.5997 153.175 39.5324 153.013C39.465 152.851 39.4488 152.672 39.4859 152.501C39.5231 152.329 39.6117 152.174 39.7398 152.055C39.7613 151.969 39.7767 151.907 39.7982 151.821C39.6313 151.395 39.3417 151.029 38.9664 150.77C38.5912 150.51 38.1474 150.369 37.6919 150.365C37.2364 150.361 36.79 150.493 36.41 150.745C36.0299 150.998 35.7334 151.358 35.5586 151.781C34.5499 154.155 33.2443 156.612 33.8936 159.226C29.6048 150.089 31.0633 138.724 37.4015 130.911C39.1535 129.941 40.5735 128.217 40.9432 126.216C40.0761 126.511 38.9951 125.802 39.647 124.884C39.9296 124.533 40.2149 124.185 40.4975 123.834C37.2038 120.308 33.2794 125.85 36.9048 130.609C35.7188 132.103 34.6916 133.718 33.8397 135.428C34.0365 133.613 33.8017 131.777 33.1547 130.07C32.499 128.48 31.27 127.141 30.1877 125.767C28.8718 124.092 26.1634 124.865 25.9864 126.99C27.2008 127.391 27.3586 129.155 25.9694 129.396C26.3333 133.35 28.9031 136.984 32.4425 138.718C31.1354 142.404 30.625 146.328 30.9453 150.228C30.3206 145.67 25.4528 144.564 22.0505 142.752C21.834 142.613 21.5817 142.539 21.3245 142.541C21.0672 142.544 20.8161 142.621 20.6018 142.764C20.3876 142.907 20.2193 143.11 20.1177 143.347C20.016 143.585 19.9853 143.847 20.0293 144.102C20.4989 144.294 20.9484 144.532 21.3711 144.813C21.5692 144.947 21.7212 145.139 21.8063 145.363C21.8915 145.587 21.9056 145.832 21.8468 146.065C21.7879 146.298 21.6589 146.506 21.4775 146.662C21.2962 146.818 21.0712 146.914 20.8336 146.936C22.5486 151.203 26.9825 154.068 31.5364 154.051C31.9741 155.963 32.6081 157.824 33.4285 159.603H40.1874C40.2116 159.528 40.2334 159.45 40.2552 159.375C39.6296 159.414 39.0015 159.376 38.385 159.263C40.0402 157.293 41.3203 156.288 40.3569 153.538L40.3567 153.537Z" fill="#F2F2F2"/>
<path d="M100.614 153.537C100.788 153.546 100.961 153.5 101.108 153.406C101.256 153.312 101.371 153.175 101.438 153.013C101.506 152.851 101.522 152.672 101.485 152.501C101.447 152.329 101.359 152.174 101.231 152.055C101.209 151.969 101.194 151.907 101.172 151.821C101.339 151.395 101.629 151.029 102.004 150.77C102.379 150.51 102.823 150.369 103.279 150.365C103.734 150.361 104.181 150.493 104.561 150.745C104.941 150.998 105.237 151.358 105.412 151.781C106.421 154.155 107.726 156.612 107.077 159.226C111.366 150.089 109.907 138.724 103.569 130.911C101.817 129.941 100.397 128.217 100.027 126.216C100.894 126.511 101.975 125.802 101.324 124.884C101.041 124.533 100.756 124.185 100.473 123.834C103.767 120.308 107.691 125.85 104.066 130.609C105.252 132.103 106.279 133.718 107.131 135.428C106.934 133.613 107.169 131.777 107.816 130.07C108.472 128.48 109.701 127.141 110.783 125.767C112.099 124.092 114.807 124.865 114.984 126.99C113.77 127.391 113.612 129.155 115.001 129.396C114.637 133.35 112.067 136.984 108.528 138.718C109.835 142.404 110.346 146.328 110.025 150.228C110.65 145.67 115.518 144.564 118.92 142.752C119.137 142.613 119.389 142.539 119.646 142.541C119.903 142.544 120.154 142.621 120.369 142.764C120.583 142.907 120.751 143.11 120.853 143.347C120.955 143.585 120.985 143.847 120.941 144.102C120.472 144.294 120.022 144.532 119.599 144.813C119.401 144.947 119.249 145.139 119.164 145.363C119.079 145.587 119.065 145.832 119.124 146.065C119.183 146.298 119.312 146.506 119.493 146.662C119.674 146.818 119.899 146.914 120.137 146.936C118.422 151.203 113.988 154.068 109.434 154.051C108.996 155.963 108.362 157.824 107.542 159.603H100.783C100.759 159.528 100.737 159.45 100.715 159.375C101.341 159.414 101.969 159.376 102.586 159.263C100.93 157.293 99.6503 156.288 100.614 153.538L100.614 153.537Z" fill="#F2F2F2"/>
<path d="M103.12 154.547L100.209 155.213L96.2695 144.244L100.566 143.262L103.12 154.547Z" fill="#FFB6B6"/>
<path d="M103.913 157.576L94.9625 159.623L94.9367 159.51C94.7265 158.581 94.8919 157.606 95.3966 156.8C95.9013 155.994 96.7039 155.422 97.6278 155.211L97.628 155.211L98.9808 153.59L102.314 154.139L103.095 153.96L103.913 157.576Z" fill="#2F2E41"/>
<path d="M150.076 101.082L151.676 103.615L142.717 111.025L140.355 107.286L150.076 101.082Z" fill="#FFB6B6"/>
<path d="M152.647 99.3125L157.569 107.102L157.471 107.164C156.671 107.675 155.702 107.845 154.777 107.638C153.852 107.43 153.047 106.862 152.539 106.058L152.539 106.058L150.566 105.321L149.963 101.98L149.533 101.3L152.647 99.3125Z" fill="#2F2E41"/>
<path d="M57.2892 73.9998L56.5703 69.8113L67.5001 64.8502L69.8605 60.6495C69.7843 60.2809 69.8109 59.8983 69.9375 59.5439C70.064 59.1895 70.2855 58.8772 70.5775 58.6414C70.8695 58.4057 71.2207 58.2556 71.5923 58.2079C71.9638 58.1602 72.3412 58.2166 72.6829 58.3709C73.0245 58.5252 73.317 58.7715 73.5282 59.0825C73.7393 59.3934 73.8609 59.757 73.8794 60.1331C73.8978 60.5091 73.8126 60.8829 73.6329 61.2133C73.4533 61.5437 73.1863 61.8177 72.8615 62.0052L68.9786 68.0394L57.2892 73.9998Z" fill="#A0616A"/>
<path d="M53.9668 70.5741L58.8888 68.0469L60.1917 72.9646L56.7729 75.5119L53.9668 70.5741Z" fill="#4BAEEA"/>
<path d="M42.9226 154.164L45.8985 154.164L47.3143 142.625L42.9219 142.625L42.9226 154.164Z" fill="#A0616A"/>
<path d="M46.8898 154.434V152.406L46.1074 152.454L42.9226 152.644L42.1855 152.689L41.622 159.482L41.5918 159.846H43.705L43.7729 159.484L44.0798 157.84L44.8722 159.484L45.0458 159.846H50.6482C50.9816 159.844 51.3007 159.709 51.5362 159.472C51.7717 159.235 51.9046 158.914 51.9061 158.579C52.1425 157.469 47.4835 155.069 46.8898 154.434Z" fill="#2F2E41"/>
<path d="M7.5961 108.375L6.90234 111.284L17.735 115.358L18.7588 111.065L7.5961 108.375Z" fill="#A0616A"/>
<path d="M6.64648 112.187L8.60845 112.659L8.74439 111.883L9.30349 108.726L9.43132 107.995L2.99184 105.861L2.6466 105.746L2.1539 107.812L2.48788 107.962L4.00644 108.646L2.23156 109.037L1.84126 109.122L0.535004 114.599C0.459325 114.925 0.514783 115.268 0.689345 115.554C0.863908 115.839 1.14347 116.044 1.46734 116.123C2.48614 116.613 5.89402 112.619 6.64648 112.187Z" fill="#2F2E41"/>
<path d="M47.5247 79.4875L43.6941 77.6875L36.055 86.9801L31.4019 88.163C31.0682 87.992 30.694 87.9171 30.3205 87.9465C29.9471 87.9759 29.5891 88.1084 29.2859 88.3295C28.9827 88.5506 28.7463 88.8517 28.6026 89.1994C28.459 89.5471 28.4137 89.9279 28.4719 90.2999C28.5301 90.6718 28.6894 91.0203 28.9323 91.307C29.1751 91.5936 29.4921 91.8072 29.8481 91.9241C30.2041 92.041 30.5854 92.0568 30.9498 91.9696C31.3141 91.8824 31.6474 91.6956 31.9129 91.43L38.7265 89.2535L47.5247 79.4875Z" fill="#A0616A"/>
<path d="M101.832 45.0894C101.02 45.0894 100.226 44.8474 99.5512 44.3939C98.876 43.9405 98.3498 43.296 98.0391 42.5419C97.7283 41.7878 97.647 40.9581 97.8055 40.1576C97.9639 39.3571 98.3549 38.6218 98.929 38.0446C99.5032 37.4675 100.235 37.0745 101.031 36.9152C101.827 36.756 102.653 36.8377 103.403 37.1501C104.153 37.4624 104.794 37.9913 105.246 38.67C105.697 39.3486 105.937 40.1465 105.937 40.9627C105.936 42.0568 105.503 43.1057 104.734 43.8794C103.964 44.653 102.92 45.0882 101.832 45.0894ZM101.832 37.3095C101.113 37.3095 100.411 37.5238 99.8129 37.9252C99.2152 38.3266 98.7494 38.8971 98.4743 39.5647C98.1993 40.2322 98.1273 40.9667 98.2675 41.6754C98.4078 42.384 98.7539 43.0349 99.2622 43.5458C99.7704 44.0567 100.418 44.4047 101.123 44.5456C101.828 44.6866 102.559 44.6142 103.223 44.3377C103.887 44.0612 104.454 43.593 104.854 42.9922C105.253 42.3915 105.466 41.6852 105.466 40.9627C105.465 39.9941 105.082 39.0656 104.401 38.3807C103.719 37.6959 102.796 37.3106 101.832 37.3095Z" fill="#E6E6E6"/>
<path d="M101.542 42.5168C101.534 42.5168 101.526 42.5165 101.517 42.5161C101.444 42.5126 101.373 42.4932 101.308 42.4594C101.244 42.4256 101.187 42.3781 101.142 42.3202L100.495 41.4844C100.455 41.4317 100.424 41.3713 100.407 41.3069C100.389 41.2424 100.384 41.1751 100.393 41.1088C100.401 41.0425 100.422 40.9784 100.455 40.9203C100.488 40.8622 100.532 40.8112 100.584 40.7702L100.607 40.752C100.66 40.7109 100.72 40.6806 100.784 40.6629C100.848 40.6451 100.915 40.6402 100.981 40.6485C101.047 40.6568 101.111 40.6781 101.169 40.7112C101.227 40.7442 101.277 40.7884 101.318 40.8412C101.351 40.8834 101.392 40.918 101.439 40.9426C101.487 40.9672 101.538 40.9813 101.592 40.9839C101.645 40.9865 101.698 40.9775 101.747 40.9576C101.796 40.9377 101.841 40.9074 101.877 40.8686L103.19 39.4751C103.283 39.3773 103.41 39.3203 103.544 39.3166C103.679 39.3129 103.809 39.3629 103.906 39.4556L103.928 39.4762C103.976 39.5222 104.015 39.5772 104.042 39.6383C104.069 39.6993 104.084 39.7651 104.086 39.832C104.088 39.8988 104.076 39.9653 104.053 40.0277C104.029 40.0901 103.993 40.1472 103.947 40.1957L101.909 42.3578C101.862 42.408 101.805 42.448 101.742 42.4753C101.679 42.5027 101.611 42.5168 101.542 42.5168Z" fill="#E6E6E6"/>
<path d="M81.3379 95.0503C80.5259 95.0503 79.7321 94.8083 79.057 94.3549C78.3819 93.9014 77.8557 93.2569 77.5449 92.5028C77.2342 91.7488 77.1529 90.919 77.3113 90.1185C77.4697 89.318 77.8607 88.5827 78.4349 88.0056C79.009 87.4284 79.7406 87.0354 80.5369 86.8762C81.3333 86.7169 82.1588 86.7987 82.909 87.111C83.6591 87.4234 84.3003 87.9523 84.7514 88.6309C85.2026 89.3096 85.4433 90.1074 85.4433 90.9236C85.4421 92.0177 85.0092 93.0667 84.2395 93.8403C83.4699 94.6139 82.4263 95.0491 81.3379 95.0503ZM81.3379 87.2705C80.6191 87.2705 79.9164 87.4847 79.3188 87.8861C78.7211 88.2875 78.2553 88.8581 77.9802 89.5256C77.7051 90.1931 77.6332 90.9277 77.7734 91.6363C77.9136 92.3449 78.2598 92.9959 78.768 93.5068C79.2763 94.0177 79.9239 94.3656 80.6289 94.5066C81.3339 94.6475 82.0646 94.5752 82.7287 94.2987C83.3928 94.0222 83.9604 93.5539 84.3597 92.9532C84.759 92.3524 84.9722 91.6461 84.9722 90.9236C84.9711 89.9551 84.5878 89.0265 83.9065 88.3417C83.2252 87.6568 82.3014 87.2716 81.3379 87.2705Z" fill="#E6E6E6"/>
<path d="M81.0479 92.4777C81.0396 92.4777 81.0314 92.4774 81.0231 92.477C80.9502 92.4735 80.879 92.4542 80.8142 92.4203C80.7495 92.3865 80.6928 92.339 80.648 92.2811L80.0013 91.4454C79.9604 91.3926 79.9303 91.3323 79.9127 91.2678C79.895 91.2034 79.8902 91.1361 79.8984 91.0697C79.9067 91.0034 79.9278 90.9394 79.9607 90.8813C79.9936 90.8232 80.0375 90.7721 80.09 90.7311L80.1133 90.7129C80.1658 90.6718 80.2258 90.6415 80.2899 90.6238C80.3541 90.606 80.421 90.6012 80.487 90.6095C80.553 90.6178 80.6168 90.639 80.6746 90.6721C80.7324 90.7052 80.7832 90.7494 80.824 90.8022C80.8567 90.8443 80.898 90.8789 80.9452 90.9035C80.9924 90.9281 81.0443 90.9422 81.0974 90.9448C81.1505 90.9474 81.2035 90.9385 81.2528 90.9186C81.3022 90.8987 81.3467 90.8683 81.3833 90.8295L82.6963 89.4361C82.7888 89.3382 82.9161 89.2812 83.0503 89.2775C83.1845 89.2739 83.3146 89.3239 83.4122 89.4165L83.4338 89.4372C83.482 89.4831 83.5208 89.5382 83.5479 89.5992C83.575 89.6603 83.5899 89.7261 83.5917 89.7929C83.5935 89.8597 83.5822 89.9262 83.5584 89.9886C83.5346 90.0511 83.4988 90.1082 83.4531 90.1567L81.4153 92.3187C81.368 92.369 81.3111 92.409 81.2479 92.4363C81.1847 92.4636 81.1167 92.4777 81.0479 92.4777Z" fill="#E6E6E6"/>
<path d="M36.3437 39.4058C35.5318 39.4058 34.738 39.1638 34.0629 38.7103C33.3877 38.2569 32.8615 37.6124 32.5508 36.8583C32.2401 36.1042 32.1588 35.2745 32.3172 34.474C32.4756 33.6735 32.8666 32.9382 33.4407 32.361C34.0149 31.7839 34.7464 31.3909 35.5428 31.2316C36.3392 31.0724 37.1647 31.1541 37.9148 31.4665C38.665 31.7788 39.3062 32.3077 39.7573 32.9864C40.2084 33.665 40.4492 34.4629 40.4492 35.2791C40.448 36.3732 40.0151 37.4221 39.2454 38.1958C38.4757 38.9694 37.4322 39.4046 36.3437 39.4058ZM36.3437 31.6259C35.6249 31.6259 34.9223 31.8402 34.3246 32.2416C33.727 32.643 33.2611 33.2136 32.9861 33.8811C32.711 34.5486 32.639 35.2831 32.7793 35.9918C32.9195 36.7004 33.2656 37.3513 33.7739 37.8622C34.2822 38.3732 34.9297 38.7211 35.6347 38.862C36.3397 39.003 37.0705 38.9306 37.7345 38.6541C38.3986 38.3776 38.9662 37.9094 39.3656 37.3087C39.7649 36.7079 39.9781 36.0016 39.9781 35.2791C39.977 34.3105 39.5937 33.382 38.9124 32.6971C38.2311 32.0123 37.3073 31.627 36.3437 31.6259Z" fill="#E6E6E6"/>
<path d="M36.0537 36.8332C36.0455 36.8332 36.0373 36.8329 36.029 36.8325C35.9561 36.829 35.8848 36.8096 35.8201 36.7758C35.7553 36.742 35.6986 36.6945 35.6539 36.6366L35.0071 35.8008C34.9663 35.7481 34.9362 35.6877 34.9185 35.6233C34.9009 35.5588 34.8961 35.4915 34.9043 35.4252C34.9125 35.3589 34.9337 35.2948 34.9666 35.2367C34.9994 35.1786 35.0434 35.1276 35.0959 35.0866L35.1191 35.0684C35.1716 35.0273 35.2316 34.997 35.2958 34.9793C35.3599 34.9615 35.4269 34.9566 35.4929 34.9649C35.5589 34.9732 35.6226 34.9945 35.6805 35.0276C35.7383 35.0606 35.789 35.1048 35.8299 35.1576C35.8625 35.1998 35.9039 35.2344 35.951 35.259C35.9982 35.2836 36.0501 35.2977 36.1032 35.3003C36.1563 35.3029 36.2094 35.2939 36.2587 35.274C36.308 35.2541 36.3525 35.2238 36.3891 35.185L37.7022 33.7915C37.7947 33.6937 37.9219 33.6367 38.0561 33.633C38.1903 33.6293 38.3205 33.6793 38.4181 33.772L38.4396 33.7926C38.4879 33.8386 38.5267 33.8937 38.5538 33.9547C38.5809 34.0157 38.5958 34.0815 38.5976 34.1484C38.5994 34.2152 38.5881 34.2817 38.5643 34.3441C38.5405 34.4065 38.5047 34.4636 38.4589 34.5121L36.4212 36.6742C36.3739 36.7244 36.3169 36.7644 36.2538 36.7918C36.1906 36.8191 36.1225 36.8332 36.0537 36.8332Z" fill="#E6E6E6"/>
<path d="M69.212 110.397C59.692 110.397 48.751 99.7776 39.071 104.823C9.76256 120.099 13.797 94.5369 5.37695 85.03L5.65339 84.4727C14.944 92.8463 26.5436 99.6593 39.1983 104.175C50.6342 108.256 62.1558 110.147 72.5134 109.648L72.5314 110.318C71.4376 110.371 70.3311 110.397 69.212 110.397Z" fill="#F2F2F2"/>
<path d="M56.154 38.5989C57.253 38.5989 58.144 37.398 58.144 35.9166C58.144 34.4353 57.253 33.2344 56.154 33.2344C55.055 33.2344 54.1641 34.4353 54.1641 35.9166C54.1641 37.398 55.055 38.5989 56.154 38.5989Z" fill="#E6E6E6"/>
<path d="M79.1372 80.4408C78.2274 81.0501 77.2963 79.5999 78.2236 79.0177C79.1333 78.4084 80.0644 79.8586 79.1372 80.4408Z" fill="#E6E6E6"/>
<path opacity="0.3" d="M82.9632 43.2875L97.7083 0L81.5173 42.7693C81.4372 42.8709 81.3823 42.9901 81.3573 43.1172C81.3322 43.2443 81.3376 43.3755 81.3731 43.5001C81.4086 43.6246 81.4731 43.7389 81.5613 43.8333C81.6495 43.9278 81.7589 43.9998 81.8803 44.0433C82.0017 44.0868 82.1317 44.1006 82.2594 44.0835C82.3872 44.0664 82.509 44.019 82.6149 43.9451C82.7208 43.8712 82.8076 43.773 82.8682 43.6586C82.9288 43.5443 82.9613 43.4171 82.9632 43.2875H82.9632Z" fill="#F0F0F0"/>
<path d="M68.0797 96.0255C69.4721 96.0255 70.6009 94.8909 70.6009 93.4912C70.6009 92.0916 69.4721 90.957 68.0797 90.957C66.6874 90.957 65.5586 92.0916 65.5586 93.4912C65.5586 94.8909 66.6874 96.0255 68.0797 96.0255Z" fill="#F2F2F2"/>
<path d="M43.6627 94.457C43.6627 94.457 37.3776 98.5709 39.0395 101.305C39.0968 101.399 31.5319 111.442 31.5319 111.442L17.2512 110.531L16.748 115.335L29.4618 119.036C29.4618 119.036 32.572 121.333 34.9748 118.803C37.3776 116.272 45.3809 108.522 45.3809 108.522L45.7669 124.169L41.7493 145.85L47.7481 145.467L53.5868 123.716L55.742 99.0766L43.6627 94.457Z" fill="#2F2E41"/>
<path d="M48.1394 69.7656L45.4964 71.779L42.4839 78.2419L45.3807 82.1965C45.3807 82.1965 47.8174 86.4413 43.9171 90.5522C40.0168 94.6631 37.0218 99.0537 40.1436 98.8969C43.2654 98.7402 55.9091 105.204 55.9923 99.9084C56.0755 94.6125 56.2439 90.5522 56.2439 90.5522L59.5588 82.1009C59.5588 82.1009 61.5337 77.0592 60.1471 75.5501C58.7605 74.0409 56.904 72.1124 56.904 72.1124L53.5278 68.7188H50.4793L48.1394 69.7656Z" fill="#4BAEEA"/>
<path d="M53.0732 57.3505C59.0026 60.7421 54.1349 69.6907 48.0949 66.5042C42.1657 63.1127 47.0334 54.1641 53.0732 57.3505Z" fill="#A0616A"/>
<path d="M56.2448 59.2295C55.8293 59.7727 54.9613 59.518 53.2614 59.9056C53.2651 59.3264 53.1986 58.749 53.0632 58.186C52.9367 58.8831 52.6596 59.5437 52.2513 60.1212C50.7753 60.2858 52.5847 64.7931 51.8289 68.107C50.8552 61.1157 48.8071 62.9474 49.8418 64.3341C50.5042 65.2218 50.0626 67.885 48.0755 66.5534C44.7968 68.1197 40.127 60.3392 45.3026 56.6903C45.2101 54.7179 47.3934 54.4064 48.7378 55.0128C52.0006 52.5696 55.7284 55.7001 56.2448 59.2295Z" fill="#2F2E41"/>
<path d="M41.0294 54.1284C39.7093 62.2869 32.6336 52.628 29.3067 60.6567C28.2606 63.5643 30.0553 65.6443 31.1906 68.0577C31.4497 70.0411 28.8828 71.0473 28.6139 72.873C28.5391 77.0586 35.257 76.8025 37.135 74.1618C39.0647 71.3974 36.7604 67.6885 37.9203 64.7213C39.5505 60.6017 46.1802 60.5711 46.7578 55.7784C45.6392 54.1772 42.6314 52.3434 41.0294 54.1284Z" fill="#2F2E41"/>
<path d="M46.3774 54.9271C46.3342 54.9453 46.291 54.9636 46.2524 54.9842H46.2501C46.2138 55.0025 46.1774 55.0207 46.141 55.0413C46.1365 55.0436 46.1342 55.0459 46.1297 55.0482C46.0819 55.0025 46.0342 54.9568 45.9842 54.9111C45.9713 54.9855 45.9744 55.0618 45.9933 55.135L46.0001 55.1624C46.0456 55.2104 46.0933 55.2561 46.1433 55.3041C46.1888 55.2698 46.232 55.2332 46.2774 55.1989C46.3047 55.1761 46.332 55.1532 46.3615 55.1304C46.3661 55.071 46.3729 55.0025 46.3797 54.9271L46.3774 54.9271ZM47.7457 52.3864C46.732 52.1534 46.4047 53.4854 46.3069 54.1274C45.9387 51.7969 44.4067 52.5304 44.9363 54.1205C45.1052 54.5913 45.3708 55.0211 45.716 55.3817C45.7637 55.4366 45.816 55.4914 45.8705 55.5462C45.8092 55.8661 46.1183 55.7838 46.5365 55.4891C46.8453 55.2683 47.1309 55.0165 47.3889 54.7374C48.2231 53.8578 48.8731 52.6811 47.7457 52.3864ZM47.7776 53.6979C47.4648 54.1033 47.1139 54.4774 46.7297 54.8151C46.6093 54.9248 46.4865 55.0299 46.3615 55.1304C46.3592 55.151 46.3592 55.1692 46.357 55.1852C46.3482 55.2074 46.3375 55.2288 46.3251 55.2492C46.1978 55.48 46.0547 55.3543 46.0001 55.1624C45.9956 55.1555 45.9887 55.1487 45.9842 55.1418C45.8026 54.9532 45.6445 54.743 45.5137 54.5158C44.5749 52.8799 46.0865 51.7672 46.0115 54.822C45.9976 54.85 45.9884 54.8801 45.9842 54.9111C45.9713 54.9855 45.9744 55.0618 45.9933 55.135L46.0001 55.1624C46.0456 55.2104 46.0933 55.2561 46.1433 55.3041C46.1888 55.2698 46.232 55.2332 46.2774 55.1989C46.3047 55.1761 46.332 55.1532 46.3615 55.1304C46.3661 55.071 46.3729 55.0025 46.3797 54.9271V54.9248C46.4388 54.3125 46.6002 53.2112 46.8979 52.9119C47.5526 52.407 48.4004 52.953 47.7776 53.6979ZM46.3774 54.9271C46.3342 54.9453 46.291 54.9636 46.2524 54.9842H46.2501C46.2138 55.0025 46.1774 55.0207 46.141 55.0413C46.1365 55.0436 46.1342 55.0459 46.1297 55.0482C46.0819 55.0025 46.0342 54.9568 45.9842 54.9111C45.9713 54.9855 45.9744 55.0618 45.9933 55.135L46.0001 55.1624C46.0456 55.2104 46.0933 55.2561 46.1433 55.3041C46.1888 55.2698 46.232 55.2332 46.2774 55.1989C46.3047 55.1761 46.332 55.1532 46.3615 55.1304C46.3661 55.071 46.3729 55.0025 46.3797 54.9271L46.3774 54.9271Z" fill="#2F2E41"/>
<path d="M101.182 99.9045L98.9916 105.645L88.7188 126.014L97.7454 149.709L102.404 148.473L98.5643 126.014L109.58 112.559L122.663 121.479C122.663 121.479 128.465 126.032 130.673 121.715C132.88 117.399 147.162 108.218 147.162 108.218L143.629 104.43L127.182 112.166L115.83 96.1055L101.182 99.9045Z" fill="#2F2E41"/>
<path d="M112.233 72.8263L108.628 68.9332L102.444 68.0781L94.8672 73.4099L94.9435 79.3115L98.6891 93.218C98.6891 93.218 97.2624 103.209 101.247 103.109C105.232 103.009 107.404 101.012 109.027 101.418C110.65 101.825 117.55 103.555 117.987 101.743C118.424 99.9305 120.748 101.228 120.646 99.5137C120.544 97.7994 114.354 85.442 114.354 85.442L115.894 73.0834L112.233 72.8263Z" fill="#4BAEEA"/>
<path d="M135.057 54.9097C135.089 55.2325 135.051 55.5585 134.944 55.8648C134.837 56.1711 134.665 56.4501 134.44 56.6822C134.214 56.9144 133.941 57.094 133.639 57.2084C133.336 57.3228 133.013 57.3693 132.691 57.3445L124.401 73.1921L122.176 69.7578L130.649 54.8011C130.726 54.2603 130.998 53.7668 131.413 53.4141C131.828 53.0614 132.358 52.874 132.901 52.8874C133.444 52.9008 133.964 53.114 134.361 53.4867C134.759 53.8595 135.006 54.3657 135.057 54.9097Z" fill="#FFB6B6"/>
<path d="M108.959 75.775C108.959 75.775 108.63 78.5939 111.787 79.2918C114.944 79.9897 123.691 74.9658 125.125 74.1985C125.574 73.9583 126.184 72.7805 126.809 71.276C127.089 70.6005 127.373 69.8592 127.647 69.1073C127.806 68.6722 128.565 68.5534 128.714 68.1219C128.863 67.6927 128.402 66.9507 128.536 66.5463C129.175 64.6264 129.628 63.1033 129.628 63.1033L127.535 59.1523C124.609 60.7075 123.108 64.1331 122.004 68.0797L108.959 75.775Z" fill="#4BAEEA"/>
<path d="M72.0867 58.5465C72.1359 58.8672 72.2544 59.1732 72.4339 59.4429C72.6134 59.7125 72.8496 59.9394 73.1257 60.1074C73.4019 60.2754 73.7113 60.3805 74.0323 60.4153C74.3532 60.4501 74.6778 60.4137 74.9833 60.3088L86.9549 73.5668L88.2547 69.6818L76.3273 57.3326C76.1178 56.8285 75.7317 56.4191 75.2421 56.182C74.7524 55.9449 74.1933 55.8966 73.6706 56.0463C73.1479 56.1959 72.6979 56.5331 72.406 56.9939C72.1141 57.4547 72.0005 58.0071 72.0867 58.5465Z" fill="#FFB6B6"/>
<path d="M102.551 72.1864C102.551 72.1864 103.571 74.8329 100.688 76.3028C97.8048 77.7726 88.0856 75.109 86.5063 74.7268C86.0117 74.6071 85.1286 73.6201 84.1487 72.3208C83.7088 71.7374 83.2494 71.0911 82.797 70.432C82.5351 70.0506 81.7705 70.1266 81.5184 69.7464C81.2677 69.3683 81.5294 68.5339 81.2984 68.1761C80.2021 66.4781 79.3848 65.1173 79.3848 65.1173L80.427 60.7656C83.6476 61.5351 85.9537 64.4741 88.0051 68.0174L102.551 72.1864Z" fill="#4BAEEA"/>
<path d="M105.659 67.0899C108.908 67.0899 111.543 64.4421 111.543 61.1758C111.543 57.9096 108.908 55.2617 105.659 55.2617C102.41 55.2617 99.7754 57.9096 99.7754 61.1758C99.7754 64.4421 102.41 67.0899 105.659 67.0899Z" fill="#FFB6B6"/>
<path d="M112.374 57.7903C111.755 56.8278 110.593 56.1864 109.468 56.3666C109.363 55.6444 109.063 54.9649 108.6 54.4021C108.138 53.8393 107.531 53.4148 106.845 53.1749C106.159 52.9349 105.421 52.8887 104.711 53.0412C104.001 53.1937 103.346 53.5391 102.818 54.0398C102.644 53.9169 102.442 53.8411 102.23 53.8198C102.019 53.7985 101.806 53.8325 101.611 53.9184C101.224 54.0955 100.886 54.3675 100.631 54.7095C99.9845 55.5194 99.569 56.4901 99.4283 57.5185C99.2875 58.5469 99.4269 59.5944 99.8314 60.5495C99.6938 60.0467 100.195 59.5737 100.702 59.4608C101.208 59.348 101.739 59.4547 102.253 59.3813C102.911 59.2871 103.503 58.9032 104.163 58.8168C104.722 58.7803 105.283 58.8527 105.814 59.0302C106.346 59.2076 106.906 59.2832 107.465 59.2531C108.02 59.1868 108.735 61.3008 108.726 62.7898C108.724 63.0719 108.782 63.4342 109.056 63.4941C109.394 63.5678 109.59 63.0991 109.911 62.9714C110.059 62.9287 110.218 62.9455 110.354 63.0183C110.49 63.091 110.593 63.214 110.641 63.3614C110.681 63.5113 110.686 63.6686 110.653 63.8205C110.621 63.9724 110.553 64.1143 110.456 64.2345C110.258 64.4727 110.023 64.6773 109.761 64.8404L109.893 64.9511C110.019 65.0846 110.187 65.17 110.368 65.1927C110.55 65.2153 110.734 65.1738 110.888 65.0753C111.192 64.8686 111.437 64.5872 111.602 64.2578C112.223 63.2931 112.666 62.2244 112.912 61.1024C113.119 59.9756 112.993 58.7527 112.374 57.7903Z" fill="#2F2E41"/>
<path d="M155.902 81.1164C148.313 86.8941 133.213 85.0688 128.527 94.9656C114.339 124.93 102.201 102.104 89.7785 99.636L89.6641 99.0239C102.1 100.061 115.439 98.452 128.239 94.3716C139.806 90.6844 150.127 85.1994 158.084 78.5156L158.501 79.0387C157.66 79.7449 156.794 80.4374 155.902 81.1164Z" fill="#F2F2F2"/>
<path d="M123.815 159.595C123.634 160.133 20.4372 160.133 20.2422 159.596C20.4227 159.057 123.62 159.057 123.815 159.595Z" fill="#CCCCCC"/>
</g>
<defs>
<clipPath id="clip0_1072_101777">
<rect width="158" height="160" fill="white" transform="translate(0.5)"/>
</clipPath>
</defs>
</svg>
