<svg width="161" height="160" viewBox="0 0 161 160" fill="none" xmlns="http://www.w3.org/2000/svg">
<path fill-rule="evenodd" clip-rule="evenodd" d="M64.6425 121.744C86.9901 128.028 97.8641 103.911 117.012 105.746C127.493 106.75 148.386 111.841 148.339 74.7584C148.222 50.8179 126.156 44.8228 103.401 57.1005C96.7047 59.7191 91.4182 58.9075 85.6784 56.3057C79.9387 53.7039 72.5567 42.0886 58.6437 39.6991C16.7752 32.5081 -19.0488 98.2085 64.6425 121.744Z" fill="#4BAEEA"/>
<path fill-rule="evenodd" clip-rule="evenodd" d="M117.75 61.5149C118.169 61.311 118.921 61.7063 118.485 62.3426C117.519 63.7513 121.256 66.5655 120.056 64.0857C119.928 63.8205 119.27 61.987 120.201 62.9335C121.132 63.8801 122.429 68.0634 121.59 69.5047C120.853 70.7696 118.904 71.3713 116.244 71.4425L116.124 71.4452L116.067 71.4487C114.499 71.5216 113.31 70.551 112.542 68.6606L112.505 68.5684C111.728 66.5897 111.941 65.0035 113.198 63.9341C113.221 63.9147 113.245 63.8973 113.271 63.882L113.31 63.8607L117.75 61.5149Z" fill="white"/>
<path fill-rule="evenodd" clip-rule="evenodd" d="M33.0168 24.4819C32.8339 24.2223 32.5374 24.0728 32.2208 24.1115C31.8966 24.1509 31.6255 24.3763 31.5269 24.6874L31.5005 24.7706C31.4806 24.832 31.4568 24.9023 31.4289 24.9814C31.3494 25.2071 31.2529 25.4577 31.139 25.7273C30.8151 26.4935 30.4164 27.2582 29.9405 27.9697C28.9138 29.5047 27.6766 30.5732 26.2263 30.9848C25.9996 31.0491 25.868 31.285 25.9323 31.5117C25.965 31.6268 28.083 32.6853 30.2453 32.4184C32.3426 32.1596 34.4863 30.5785 34.5036 30.4708L34.53 30.2468L34.5375 30.1717C34.6877 28.5427 34.4025 26.7025 33.3056 24.9199C33.2144 24.7718 33.1182 24.6258 33.0168 24.4819Z" fill="#E7EAEE"/>
<path fill-rule="evenodd" clip-rule="evenodd" d="M37.3816 24.957L37.3704 25.0432C37.2185 26.1461 36.7927 27.6819 36.0228 28.8405C35.0748 30.2668 33.7369 31.3577 32.3925 32.0606C30.4531 33.0747 28.342 33.2603 26.2633 31.9429L26.1716 31.8839C25.0793 31.1695 24.2504 30.8255 23.113 31.1093C21.9756 31.3932 21.4232 32.2216 20.9322 32.9901L20.9097 33.0226C20.831 33.1278 20.7159 33.2006 20.5861 33.2262L18.4297 33.5678L19.215 34.5434C19.4514 34.8391 19.6194 35.0523 19.719 35.1829L20.5822 36.3201C23.1546 39.694 25.9231 42.9153 31.3217 41.8002L31.5046 41.7609C32.9349 41.443 34.1341 42.2969 35.6385 43.5554L35.9599 43.8261C36.3578 44.1628 37.5609 45.2235 38.0534 45.734L38.2143 45.9029L38.3628 46.0626C38.3937 46.0963 38.4232 46.1287 38.4511 46.1597L38.6046 46.3328L38.6989 46.2215C39.7172 44.9955 40.355 43.1283 40.6852 41.588C40.81 41.006 40.8816 40.4488 40.9113 39.9346L40.915 39.8677C40.9227 39.7174 40.9262 39.5861 40.9268 39.4765V39.3952L40.7729 39.4403C38.9924 39.9453 36.9891 39.9955 35.0343 39.7699C34.5621 39.7155 39.7421 35.52 38.6789 30.0866C38.4365 28.8483 38.2827 27.1926 37.8595 26.0688C37.726 25.7144 37.5877 25.3903 37.4506 25.1004L37.3816 24.957Z" fill="white"/>
<path fill-rule="evenodd" clip-rule="evenodd" d="M117.976 62.1854L113.544 64.3398C112.482 65.2437 112.301 66.5881 113.002 68.3729C113.248 68.9991 113.863 70.4909 113.863 69.9049C113.863 69.7219 117.976 67.0338 118.765 67.2968C119.494 67.54 118.184 65.3478 117.816 64.3398L117.976 62.1303L118.098 61.9102" fill="#E7EAEE"/>
<path fill-rule="evenodd" clip-rule="evenodd" d="M112.062 63.8008C112.357 63.8008 110.688 64.5857 110.774 66.0334C110.86 67.481 111.991 70.1491 111.716 70.2542C111.441 70.3593 110.919 69.5815 110.814 69.3064C110.16 67.5944 110.036 66.8959 110.059 65.8973C110.09 64.5902 110.777 63.8008 112.062 63.8008Z" fill="#E7EAEE"/>
<ellipse cx="119.49" cy="65.2353" rx="1.15203" ry="2.60249" fill="#E7EAEE"/>
<path fill-rule="evenodd" clip-rule="evenodd" d="M39.0215 92.6768C39.0215 88.1612 39.5232 86.1978 44.9108 83.7334C55.953 79.2701 55.953 79.0981 77.1072 70.9194C82.7015 68.7677 94.4958 73.9222 99.6245 71.762C103.044 70.3218 106.241 69.2525 109.066 67.8242C109.339 69.6105 111.108 72.6347 111.73 73.1546C108.423 73.8488 105.223 74.9223 102.131 76.3752C95.4474 79.5159 99.408 78.6601 88.8217 88.6433C87.9246 89.4893 84.6278 91.4183 79.8609 93.4276C79.8609 93.4276 70.2609 92.1384 66.4106 90.5369C62.4922 88.907 56.5548 83.7334 56.5548 83.7334C56.5548 83.7334 49.6299 88.2511 45.6488 90.2818C43.7855 91.2322 39.0215 92.6768 39.0215 92.6768Z" fill="white"/>
<path fill-rule="evenodd" clip-rule="evenodd" d="M39.0205 90.3292C39.0205 89.2693 38.9085 88.5294 39.0205 87.7112C39.3855 85.0436 40.8162 83.6789 44.9393 81.7929C55.9815 77.3297 55.952 76.7505 77.1061 68.5717C82.7005 66.42 94.4947 71.5746 99.6235 69.4143C103.043 67.9742 106.24 66.9048 109.065 65.4766C109.073 65.5277 108.779 67.9687 108.779 67.9687C108.779 67.9687 101.805 71.6512 97.1924 72.432C92.2912 73.2617 85.5592 69.4143 78.8372 71.3066C68.6005 74.1882 45.0107 83.2455 42.2201 85.5153C40.0274 87.2988 39.0205 90.3292 39.0205 90.3292Z" fill="#E7EAEE"/>
<path fill-rule="evenodd" clip-rule="evenodd" d="M33.0168 24.4819C32.8339 24.2223 32.5374 24.0728 32.2208 24.1115C31.8966 24.1509 31.6255 24.3763 31.5269 24.6874L31.5005 24.7706C31.4806 24.832 31.4568 24.9023 31.4289 24.9814C31.3494 25.2071 31.2529 25.4577 31.139 25.7273C30.8151 26.4935 30.4164 27.2582 29.9405 27.9697C28.9138 29.5047 27.6766 30.5732 26.2263 30.9848C25.9996 31.0491 25.868 31.285 25.9323 31.5117C25.9967 31.7384 29.5203 30.1326 30.6498 28.4441C31.1583 27.684 31.5814 26.8724 31.925 26.0595C32.0287 25.8143 32.1189 25.5833 32.1962 25.3701L32.2338 25.265C32.264 25.1791 32.29 25.1021 32.3121 25.0341C32.3177 24.9856 32.3229 24.9694 32.3277 24.9854C34.772 26.6576 33.8111 30.8076 34.0459 30.8278C34.27 30.8471 34.4685 30.6894 34.5036 30.4708L34.53 30.2468L34.5375 30.1717C34.6877 28.5427 34.4025 26.7025 33.3056 24.9199C33.2144 24.7718 33.1182 24.6258 33.0168 24.4819Z" fill="#E7EAEE"/>
<path fill-rule="evenodd" clip-rule="evenodd" d="M38.1075 24.4707L38.1613 24.5668L38.227 24.6902C38.2666 24.7661 38.3111 24.8543 38.3594 24.9538C38.5271 25.2987 38.6964 25.6891 38.8586 26.1196C39.3149 27.3314 39.634 28.6392 39.743 30.0017C39.8908 31.8506 39.6239 33.5956 38.948 35.183L38.8901 35.3163C38.3409 36.5563 37.5409 37.6925 36.5023 38.7119L36.3994 38.8116L36.4869 38.8158C37.9825 38.8787 39.4615 38.7448 40.7616 38.3302C41.0404 38.2413 41.3444 38.2872 41.5847 38.4543C41.8244 38.621 41.9733 38.8894 41.9883 39.181L41.9917 39.2715L41.9938 39.3911V39.4372C41.9938 39.6041 41.9889 39.7913 41.9771 39.9964C41.9442 40.5628 41.8657 41.1738 41.729 41.8116C41.3427 43.6136 40.5704 45.3014 39.3081 46.7234C39.1406 46.9122 38.9049 47.0253 38.6544 47.0387L38.5964 47.0401C38.3289 47.035 38.0846 46.9245 37.9109 46.7356L37.7838 46.5878L37.7214 46.517L37.5889 46.3699L37.4437 46.2132C37.3933 46.1595 37.3409 46.1043 37.2865 46.0479C36.823 45.5674 36.3115 45.0909 35.7682 44.6525C34.2623 43.4374 32.8098 42.7514 31.5694 42.8257C29.5402 42.9476 27.8598 42.8528 26.3008 42.4154C24.2854 41.85 22.7028 40.7404 21.6555 38.9741L21.5968 38.8735C21.0546 37.9279 20.2537 36.8386 19.3091 35.7049C19.0172 35.3545 18.7293 35.0213 18.4548 34.7132L18.338 34.5827C18.1511 34.3747 17.9979 34.209 17.9337 34.1415C17.6966 33.8917 17.6142 33.5332 17.7178 33.2055L17.733 33.1612C17.8468 32.8549 18.1114 32.628 18.4339 32.5644L20.1632 32.2226L20.1834 32.1934C20.8021 31.3139 21.6856 30.5689 22.8592 30.2688C24.0834 29.9558 25.3715 30.2279 26.6688 31.0511L26.7593 31.1094C28.5114 32.2553 30.248 32.1921 31.8991 31.3288C33.0785 30.7121 34.2026 29.6649 35.0544 28.3833C35.8463 27.1917 36.3171 25.9179 36.3506 24.9125C36.3647 24.4924 36.6545 24.1316 37.062 24.0287C37.47 23.9256 37.8966 24.1063 38.1075 24.4707ZM37.3824 24.9571L37.3713 25.0433C37.2193 26.1461 36.7936 27.682 36.0236 28.8405C35.0756 30.2669 33.7378 31.3577 32.3934 32.0607C30.4539 33.0747 28.3428 33.2604 26.2642 31.943L26.1725 31.884C25.0801 31.1695 24.2512 30.8255 23.1138 31.1094C21.9765 31.3933 21.424 32.2216 20.9331 32.9902L20.9106 33.0227C20.8319 33.1279 20.7167 33.2007 20.587 33.2263L18.4305 33.5679L19.2158 34.5434C19.4522 34.8392 19.6202 35.0523 19.7198 35.183L20.583 36.3201C23.1555 39.694 25.9239 42.9154 31.3225 41.8002L31.5055 41.761C32.9358 41.4431 34.1349 42.2969 35.6393 43.5555L35.9607 43.8261C36.3587 44.1629 37.5618 45.2235 38.0542 45.7341L38.2151 45.903L38.3636 46.0627C38.3945 46.0964 38.424 46.1288 38.452 46.1598L38.6055 46.3329L38.6997 46.2216C39.7181 44.9956 40.3559 43.1284 40.686 41.5881C40.8108 41.0061 40.8824 40.4488 40.9122 39.9347L40.9158 39.8677C40.9236 39.7174 40.927 39.5862 40.9276 39.4766V39.3953L40.7738 39.4404C38.9932 39.9453 36.9899 39.9955 35.0351 39.77C34.563 39.7155 39.743 35.5201 38.6797 30.0867C38.4374 28.8483 38.2836 27.1927 37.8603 26.0689C37.7269 25.7144 37.5885 25.3903 37.4514 25.1005L37.3824 24.9571Z" fill="#E7EAEE"/>
<path fill-rule="evenodd" clip-rule="evenodd" d="M23.8608 34.5597C24.2725 34.5597 24.6074 34.2248 24.6074 33.8131C24.6074 33.4014 24.2725 33.0664 23.8608 33.0664C23.449 33.0664 23.1141 33.4014 23.1141 33.8131C23.1141 34.2247 23.449 34.5597 23.8608 34.5597Z" fill="#00160A"/>
<ellipse cx="24.4995" cy="36.585" rx="1.17333" ry="0.96" fill="#FFB61D"/>
<ellipse cx="24.4995" cy="36.585" rx="1.17333" ry="0.96" fill="#FFB61D"/>
<path fill-rule="evenodd" clip-rule="evenodd" d="M38.107 24.4707L38.1608 24.5668L38.2266 24.6902C38.2661 24.7661 38.3106 24.8543 38.3589 24.9538C38.5266 25.2987 38.6959 25.6891 38.8581 26.1196C39.3144 27.3314 39.6335 28.6392 39.7425 30.0017C39.8903 31.8506 39.6234 33.5956 38.9475 35.183L38.8896 35.3163C38.3404 36.5563 37.5404 37.6925 36.5018 38.7119L36.3989 38.8116L36.4864 38.8158C37.982 38.8787 39.461 38.7448 40.7611 38.3302C41.0399 38.2413 41.3439 38.2872 41.5842 38.4543C41.8239 38.621 41.9728 38.8894 41.9878 39.181L41.9912 39.2715L41.9933 39.3911V39.4372C41.9933 39.6041 41.9884 39.7913 41.9766 39.9964C41.9437 40.5628 41.8652 41.1738 41.7285 41.8116C41.3422 43.6136 40.5699 45.3014 39.3076 46.7234C39.1401 46.9122 38.9044 47.0253 38.6539 47.0387L38.5959 47.0401C38.3284 47.035 38.0841 46.9245 37.9104 46.7356L37.7833 46.5878L37.7209 46.517L37.5884 46.3699L37.4433 46.2132C37.3928 46.1595 37.3404 46.1043 37.286 46.0479C36.8225 45.5674 36.311 45.0909 35.7677 44.6525C34.2618 43.4374 32.8093 42.7514 31.5689 42.8257C29.5397 42.9476 27.8593 42.8528 26.3003 42.4154C24.2849 41.85 22.7023 40.7404 21.655 38.9741L21.5963 38.8735C21.0541 37.9279 20.2533 36.8386 19.3086 35.7049C19.0167 35.3545 18.7288 35.0213 18.4543 34.7132L18.3375 34.5827C18.1506 34.3747 17.9974 34.209 17.9332 34.1415C17.6961 33.8917 17.6137 33.5332 17.7173 33.2055L17.7325 33.1612C17.8463 32.8549 18.1109 32.628 18.4334 32.5644L20.1627 32.2226L20.1829 32.1934C20.8016 31.3139 21.6851 30.5689 22.8587 30.2688C24.0139 29.9734 25.2262 30.1992 26.4492 30.9173C27.804 30.4632 28.9672 29.4269 29.9411 27.971C30.417 27.2595 30.8157 26.4948 31.1396 25.7286C31.2535 25.459 31.35 25.2084 31.4295 24.9827C31.4574 24.9036 31.4812 24.8333 31.5011 24.7719L31.5274 24.6887C31.6261 24.3776 31.8972 24.1522 32.2214 24.1128C32.538 24.0741 32.8345 24.2236 33.0174 24.4832C33.1188 24.6271 33.215 24.7731 33.3061 24.9212C34.1577 26.3049 34.52 27.7233 34.5693 29.0508C34.7388 28.8366 34.9007 28.6138 35.0539 28.3833C35.8458 27.1917 36.3166 25.9179 36.3501 24.9125C36.3642 24.4924 36.654 24.1316 37.0615 24.0287C37.4695 23.9256 37.8961 24.1063 38.107 24.4707ZM31.8986 31.3288C30.2948 32.1673 28.6103 32.251 26.9093 31.2049C28.0546 30.6754 29.8921 29.5791 30.6504 28.4454C31.1589 27.6853 31.582 26.8737 31.9256 26.0608C32.0293 25.8156 32.1195 25.5846 32.1968 25.3714L32.2344 25.2663C32.2646 25.1804 32.2906 25.1034 32.3127 25.0354C32.3183 24.9869 32.3235 24.9707 32.3283 24.9867C33.953 26.0983 34.0732 28.3046 34.0401 29.6651C33.387 30.362 32.6542 30.9337 31.8986 31.3288ZM32.3929 32.0607C33.0437 31.7204 33.693 31.2892 34.2973 30.773C34.3438 30.7459 34.3848 30.7103 34.4182 30.668C35.0154 30.1412 35.5648 29.5301 36.0231 28.8405C36.7931 27.682 37.2188 26.1461 37.3708 25.0433L37.3819 24.9571L37.4509 25.1005C37.588 25.3903 37.7264 25.7144 37.8598 26.0689C38.1544 26.8509 38.3184 27.8906 38.4726 28.868C38.54 29.295 38.6055 29.7101 38.6792 30.0867C39.4941 34.2511 36.6415 37.6884 35.4772 39.0912C35.1224 39.5187 34.9244 39.7573 35.0346 39.77C36.9894 39.9955 38.9927 39.9453 40.7733 39.4404L40.9271 39.3953V39.4766C40.9265 39.5862 40.9231 39.7174 40.9153 39.8677L40.9117 39.9347C40.8819 40.4488 40.8103 41.0061 40.6855 41.5881C40.3554 43.1284 39.7176 44.9956 38.6992 46.2216L38.605 46.3329L38.4515 46.1598C38.4235 46.1288 38.394 46.0964 38.3631 46.0627L38.2146 45.903L38.0537 45.7341C37.5613 45.2235 36.3582 44.1629 35.9602 43.8261L35.6388 43.5555C34.1344 42.2969 32.9353 41.4431 31.505 41.761L31.322 41.8002C25.9234 42.9154 23.155 39.694 20.5825 36.3201L19.7194 35.183C19.6197 35.0523 19.4517 34.8392 19.2153 34.5434L18.43 33.5679L20.5865 33.2263C20.7162 33.2007 20.8314 33.1279 20.9101 33.0227L20.9326 32.9902C21.4235 32.2216 21.976 31.3933 23.1133 31.1094C24.2507 30.8255 25.0796 31.1695 26.172 31.884L26.2637 31.943C28.3423 33.2604 30.4534 33.0747 32.3929 32.0607ZM117.75 61.5138C118.169 61.31 118.921 61.7052 118.485 62.3415C117.824 63.3046 118.558 65.5412 119.005 66.9034L119.005 66.9035C119.212 67.5337 119.358 67.9768 119.275 68.02C119.014 68.1564 118.692 68.0554 118.555 67.7944C117.816 66.3807 117.392 65.2581 117.286 64.4049C117.234 63.9803 117.222 63.5696 117.252 63.1734L117.256 63.1276L113.84 64.7878L113.797 64.8274C113.026 65.5508 112.687 66.3904 113.251 67.8778L113.285 67.9641C113.897 69.5236 114.934 70.6422 116.013 70.5957L116.097 70.5913C118.494 70.5432 119.927 69.8218 120.438 68.9435C121.081 67.839 121.256 66.5644 120.056 64.0846C119.928 63.8194 119.27 61.9859 120.201 62.9325C121.131 63.8791 122.429 68.0623 121.59 69.5036C120.889 70.7069 119.091 71.31 116.628 71.4273C116.642 71.49 116.645 71.5564 116.635 71.6239C116.402 73.2077 115.679 74.2039 114.47 74.4922C113.546 74.7126 112.552 74.4206 111.642 73.7171C108.445 74.4037 105.35 75.4501 102.357 76.8565L101.914 77.0665C100.387 77.7959 99.5114 78.2848 98.872 78.76C98.497 79.0388 98.1872 79.3243 97.8542 79.6917L97.8005 79.7529C97.6388 79.9404 97.2863 80.3709 96.8855 80.8605C96.3519 81.5124 95.7324 82.269 95.3627 82.6969L95.1843 82.9023C93.6823 84.6234 91.7891 86.5761 89.1871 89.0299L89.1142 89.0967C88.1386 89.9685 85.5462 91.4424 82.3133 92.9287C91.2353 92.6117 97.6686 89.2063 101.675 82.7069C101.851 82.4209 102.245 82.3672 102.491 82.5954C109.381 88.9759 117.363 91.9285 126.469 91.4674C135.6 91.0051 142.3 88.632 146.591 84.3714C146.8 84.1639 147.138 84.1651 147.345 84.3741C147.553 84.5831 147.551 84.9208 147.342 85.1283C142.841 89.5979 133.285 92.9517 123.914 93.4262C114.8 93.8876 109.362 90.1324 102.409 83.9602L102.239 83.8083L102.178 83.9019C97.7741 90.5756 88.2067 95.4432 78.6589 95.512L78.3597 95.5131C68.5939 95.5131 62.9616 90.7844 56.373 84.3214L56.3217 84.2706L56.2982 84.2908L55.7227 84.7749C49.549 89.9704 44.9425 93.847 38.0131 94.8373L37.7921 94.8682C29.979 96.449 18.1296 92.2383 16.3087 90.1744C14.6403 88.2833 16.5863 89.4588 17.1205 89.7815C17.1694 89.811 17.2064 89.8333 17.2278 89.8456C22.399 92.8062 28.3612 93.9337 35.5146 92.958C36.5018 92.8233 37.4828 92.6451 38.4575 92.4232L38.4462 92.3181C38.1339 89.3516 38.1321 88.0551 38.5821 86.5669C39.1943 84.5426 40.6805 83.0046 43.354 81.7817L44.0901 81.4562C47.3926 80.0008 50.0153 78.9081 52.7357 77.8465L52.9349 77.7688C53.24 77.6501 53.5491 77.5307 53.8646 77.4096L54.1738 77.2918C54.2855 77.2522 55.7427 76.6745 57.9578 75.7964C63.0676 73.7706 72.2106 70.1459 78.1752 67.8399C79.4654 67.3437 81.0277 67.1787 82.9438 67.2776L83.1089 67.2868C84.5443 67.3713 85.9562 67.5661 88.2708 67.9666L90.3043 68.3227C92.5752 68.7158 93.6756 68.8708 94.9602 68.9623C95.3641 68.9911 95.748 69.0268 96.1126 69.0606C97.4635 69.1862 98.5507 69.2873 99.4169 68.9224C100.186 68.5985 100.94 68.2857 101.679 67.9793L101.681 67.9785L101.683 67.9775C104.104 66.9734 106.362 66.0368 108.457 64.9952C108.601 64.0634 108.968 63.3754 109.543 62.9223C110.431 62.2234 111.687 62.2117 112.777 62.6354C113.051 62.7421 113.187 63.0512 113.08 63.3258C113.046 63.4146 112.824 63.3736 112.51 63.3157C111.853 63.1947 110.794 62.9993 110.203 63.7603C109.546 64.6069 109.327 65.9037 109.909 68.4573C110.331 70.308 113.067 73.4546 114.223 73.4546C115.511 73.4546 115.812 72.2039 115.983 71.4946L115.994 71.4503C114.462 71.4899 113.297 70.5203 112.542 68.6596L112.505 68.5674C111.728 66.5886 111.941 65.0024 113.198 63.9331C113.221 63.9136 113.245 63.8962 113.271 63.8809L113.31 63.8596L117.75 61.5138ZM110.658 72.7529C110.604 72.6876 110.551 72.6207 110.498 72.5522C110.488 72.5416 110.478 72.531 110.469 72.5206L110.459 72.5094C110.453 72.5025 110.448 72.4958 110.442 72.4891C110.394 72.4301 110.344 72.3702 110.293 72.3091C109.88 71.8126 109.401 71.2374 109.026 70.4078L108.971 70.2869C108.37 68.9393 108.298 67.4255 108.335 66.1773L108.34 66.0323L108.309 66.0484C105.823 67.2786 103.119 68.5126 100.197 69.7507L99.831 69.9054C98.5799 70.4324 97.0174 70.8046 95.0375 70.6767L94.8844 70.6663C93.5318 70.5699 92.394 70.4082 90.0082 69.994L88.2271 69.6817C83.206 68.8124 80.6934 68.6767 78.6229 69.4509C78.6229 69.4509 47.7465 81.0657 43.7921 82.7542C41.387 83.8544 40.5711 84.8895 39.5765 86.5669C39.062 87.4345 39.114 89.8277 39.1502 91.4901C39.1562 91.769 39.1619 92.0273 39.1643 92.2544C45.0025 90.7942 50.6145 87.7587 56.0038 83.1416C56.2163 82.9595 56.5333 82.9726 56.73 83.1715C57.166 83.6123 57.6093 84.0382 58.0599 84.4491L80.2944 75.1598C80.3554 75.1343 80.4184 75.121 80.4807 75.1188C80.6482 75.0398 80.8287 74.9744 81.0225 74.9229C82.9613 74.4075 84.5097 75.246 85.5794 77.3102L87.5174 75.8965C87.8033 75.688 88.2092 75.8105 88.3319 76.1423C90.1005 80.9221 89.5852 84.1972 86.673 85.7774C83.7361 87.371 81.1821 86.057 79.1909 82.0739C79.0898 81.8717 79.1295 81.6382 79.2693 81.4808C78.7946 79.5525 78.7066 78.0161 79.0295 76.9035L59.5492 85.7315C62.4621 88.0964 65.6606 89.88 69.1472 91.083C69.2269 91.0067 69.3132 90.9411 69.3981 90.8946C72.3349 89.2859 79.5704 87.4069 81.3577 86.9427L81.3584 86.9425L81.557 86.8909C81.6137 86.8761 81.6592 86.8641 81.6929 86.8551C82.5314 86.6305 81.6723 87.414 81.4191 87.5308L81.3868 87.5445L70.8264 91.6112C73.9679 92.5059 77.3319 92.9531 80.9197 92.9531C81.1237 92.9531 81.3265 92.9516 81.5281 92.9485L81.7644 92.7949L81.7646 92.7948C84.0229 91.3269 87.7996 88.8722 88.4553 88.2539L88.7612 87.9646C90.9355 85.8548 92.5537 83.8307 93.9662 82.064C95.516 80.1255 96.8181 78.4968 98.3355 77.4042C99.5153 76.5547 99.9429 76.3606 100.948 75.9044L100.949 75.904C101.217 75.7821 101.527 75.6414 101.904 75.4644C104.569 74.2119 107.596 73.4867 110.437 72.8059L110.437 72.8058L110.658 72.7529ZM81.2966 75.9538C82.8329 75.5453 83.9835 76.2668 84.8605 78.2815L84.8881 78.4188C85.2125 80.0916 85.0731 81.0278 84.6289 81.2769C84.2094 81.5121 83.7962 81.2829 83.2617 80.3206C83.229 80.2595 83.1854 80.2069 83.1344 80.1643C82.9883 80.042 82.7826 80.0037 82.5963 80.0772L82.5948 80.0778L82.5923 80.0788L80.2509 81.0026L80.1923 80.7456C79.5511 77.8391 79.9689 76.3068 81.2966 75.9538ZM55.4842 100.18C55.7319 100.021 57.4416 99.1866 55.9191 100.755C54.3965 102.322 42.5386 108.974 36.1377 109.343C29.9684 109.698 24.4908 107.121 19.7251 103.749L19.5671 103.636L19.5356 103.677C19.3247 103.944 19.1079 104.187 18.8851 104.405L18.7893 104.497C18.3856 104.876 17.687 105.305 16.6776 105.803C16.4135 105.934 15.4803 106.054 15.9632 105.561C16.4461 105.069 17.5029 104.36 18.1184 103.953C18.5206 103.688 18.6477 103.377 18.7737 103.069C18.8405 102.905 18.9071 102.743 19.0142 102.588C19.1862 102.339 19.5307 102.283 19.7728 102.464C24.4709 105.985 29.9592 107.862 36.1377 107.507C42.3418 107.15 48.7492 104.514 55.4842 100.18ZM91.9745 103.581C92.191 103.381 92.191 101.956 91.9745 102.156C89.5782 104.367 84.5613 106.312 78.3705 106.668C72.1719 107.025 67.2985 106.05 63.7408 103.762C63.4931 103.603 62.2667 103.182 63.0038 103.922C63.7408 104.663 72.0253 108.528 78.4318 108.159L78.6236 108.148C84.9361 107.763 89.3864 105.969 91.9745 103.581ZM87.5988 77.2764L87.5667 77.1805L85.9609 78.3521L85.9904 78.5178C86.3134 80.4063 86.0931 81.6407 85.1975 82.18L85.1506 82.2073C84.2171 82.7307 83.3385 82.361 82.6038 81.2853L82.5715 81.2375L80.4124 82.1096L80.4622 82.2003C82.1127 85.1785 83.9419 86.0068 86.0947 84.877L86.1642 84.8399C88.3262 83.6667 88.8588 81.2725 87.6735 77.5085L87.5988 77.2764ZM24.6067 33.8134C24.6067 34.2251 24.2717 34.5601 23.86 34.5601C23.4483 34.5601 23.1133 34.2251 23.1133 33.8134C23.1133 33.4017 23.4483 33.0667 23.86 33.0667C24.2717 33.0667 24.6067 33.4017 24.6067 33.8134Z" fill="#00160A"/>
</svg>
