<svg width="20" height="20" viewBox="0 0 20 20" fill="none" xmlns="http://www.w3.org/2000/svg">
<path fill-rule="evenodd" clip-rule="evenodd" d="M15.834 2.64298C15.6339 2.64298 15.4358 2.6824 15.2509 2.75897C15.0661 2.83554 14.8981 2.94778 14.7566 3.08926L3.66308 14.1828L2.85502 17.1457L5.8179 16.3376L16.9114 5.24409C17.0529 5.1026 17.1651 4.93463 17.2417 4.74976C17.3183 4.5649 17.3577 4.36677 17.3577 4.16667C17.3577 3.96658 17.3183 3.76844 17.2417 3.58358C17.1651 3.39872 17.0529 3.23075 16.9114 3.08926C16.7699 2.94778 16.602 2.83554 16.4171 2.75897C16.2322 2.6824 16.0341 2.64298 15.834 2.64298ZM14.6131 1.21917C15.0002 1.05884 15.415 0.976318 15.834 0.976318C16.253 0.976318 16.6678 1.05884 17.0549 1.21917C17.442 1.3795 17.7937 1.6145 18.0899 1.91075C18.3862 2.207 18.6212 2.5587 18.7815 2.94578C18.9418 3.33285 19.0244 3.74771 19.0244 4.16667C19.0244 4.58564 18.9418 5.0005 18.7815 5.38757C18.6212 5.77464 18.3862 6.12635 18.0899 6.4226L6.83993 17.6726C6.73738 17.7751 6.60985 17.8492 6.46993 17.8873L1.8866 19.1373C1.59809 19.216 1.28954 19.1341 1.07808 18.9226C0.866623 18.7111 0.784683 18.4026 0.863367 18.1141L2.11337 13.5307C2.15153 13.3908 2.22554 13.2633 2.32808 13.1608L13.5781 1.91075C13.8743 1.6145 14.226 1.3795 14.6131 1.21917Z" fill="white"/>
</svg>
