<svg width="25" height="24" viewBox="0 0 25 24" fill="none" xmlns="http://www.w3.org/2000/svg">
<path fill-rule="evenodd" clip-rule="evenodd" d="M4.56408 15.4645C5.50176 14.5268 6.77353 14 8.09961 14H16.0996C17.4257 14 18.6975 14.5268 19.6351 15.4645C20.5728 16.4021 21.0996 17.6739 21.0996 19V21C21.0996 21.5523 20.6519 22 20.0996 22C19.5473 22 19.0996 21.5523 19.0996 21V19C19.0996 18.2044 18.7835 17.4413 18.2209 16.8787C17.6583 16.3161 16.8953 16 16.0996 16H8.09961C7.30396 16 6.5409 16.3161 5.97829 16.8787C5.41568 17.4413 5.09961 18.2044 5.09961 19V21C5.09961 21.5523 4.65189 22 4.09961 22C3.54732 22 3.09961 21.5523 3.09961 21V19C3.09961 17.6739 3.62639 16.4021 4.56408 15.4645Z" fill="#D9D9D9"/>
<path fill-rule="evenodd" clip-rule="evenodd" d="M12.0996 4C10.4428 4 9.09961 5.34315 9.09961 7C9.09961 8.65685 10.4428 10 12.0996 10C13.7565 10 15.0996 8.65685 15.0996 7C15.0996 5.34315 13.7565 4 12.0996 4ZM7.09961 7C7.09961 4.23858 9.33819 2 12.0996 2C14.861 2 17.0996 4.23858 17.0996 7C17.0996 9.76142 14.861 12 12.0996 12C9.33819 12 7.09961 9.76142 7.09961 7Z" fill="#D9D9D9"/>
</svg>
