<svg width="16" height="17" viewBox="0 0 16 17" fill="none" xmlns="http://www.w3.org/2000/svg">
<path d="M0.666016 3.16797V7.16797H4.66602" stroke="#4BAEEA" stroke-width="1.33333" stroke-linecap="round" stroke-linejoin="round"/>
<path d="M15.334 13.832V9.83203H11.334" stroke="#4BAEEA" stroke-width="1.33333" stroke-linecap="round" stroke-linejoin="round"/>
<path d="M13.6593 6.50233C13.3212 5.54685 12.7466 4.6926 11.989 4.01927C11.2315 3.34595 10.3157 2.87551 9.32716 2.65183C8.33861 2.42816 7.30951 2.45856 6.33589 2.74018C5.36226 3.0218 4.47585 3.54547 3.75935 4.26233L0.666016 7.169M15.3327 9.83566L12.2393 12.7423C11.5229 13.4592 10.6364 13.9829 9.66281 14.2645C8.68919 14.5461 7.66009 14.5765 6.67154 14.3528C5.68299 14.1292 4.76722 13.6587 4.00966 12.9854C3.2521 12.3121 2.67746 11.4578 2.33935 10.5023" stroke="#4BAEEA" stroke-width="1.33333" stroke-linecap="round" stroke-linejoin="round"/>
</svg>
