<svg width="18" height="17" viewBox="0 0 18 17" fill="none" xmlns="http://www.w3.org/2000/svg">
<path fill-rule="evenodd" clip-rule="evenodd" d="M2.80078 7.70078C2.80078 4.71842 5.21841 2.30078 8.20066 2.30078C11.1829 2.30078 13.6005 4.71842 13.6005 7.70078C13.6005 9.15113 13.0288 10.4679 12.0984 11.4381C12.0691 11.4614 12.0409 11.4866 12.0138 11.5137C11.9867 11.5408 11.9614 11.5691 11.9381 11.5983C10.968 12.5289 9.65109 13.1008 8.20066 13.1008C5.21841 13.1008 2.80078 10.6831 2.80078 7.70078ZM12.6785 13.5926C11.4353 14.539 9.8836 15.1008 8.20066 15.1008C4.1138 15.1008 0.800781 11.7877 0.800781 7.70078C0.800781 3.61389 4.1138 0.300781 8.20066 0.300781C12.2875 0.300781 15.6005 3.61389 15.6005 7.70078C15.6005 9.38359 15.0388 10.9352 14.0927 12.1784L16.9079 14.9937C17.2984 15.3842 17.2984 16.0174 16.9079 16.4079C16.5174 16.7984 15.8842 16.7984 15.4937 16.4079L12.6785 13.5926Z" fill="#818181"/>
</svg>
